<mxfile host="65bd71144e">
    <diagram id="3g2r9AfaQK4DRxRpGaNm" name="Page-1">
        <mxGraphModel dx="-55" dy="1113" grid="1" gridSize="10" guides="1" tooltips="1" connect="1" arrows="1" fold="1" page="1" pageScale="1" pageWidth="1169" pageHeight="827" math="0" shadow="0">
            <root>
                <mxCell id="0"/>
                <mxCell id="1" parent="0"/>
                <mxCell id="226" value="" style="edgeStyle=none;orthogonalLoop=1;jettySize=auto;html=1;rounded=0;strokeColor=default;align=center;verticalAlign=middle;fontFamily=Helvetica;fontSize=11;fontColor=default;labelBackgroundColor=default;endArrow=none;endFill=0;exitX=0.059;exitY=1.026;exitDx=0;exitDy=0;exitPerimeter=0;startArrow=oval;startFill=0;" parent="1" edge="1">
                    <mxGeometry width="100" relative="1" as="geometry">
                        <mxPoint x="4149.570000000001" y="413.5800000000001" as="sourcePoint"/>
                        <mxPoint x="4149.22" y="451.41" as="targetPoint"/>
                        <Array as="points"/>
                    </mxGeometry>
                </mxCell>
                <mxCell id="227" value="" style="edgeStyle=none;orthogonalLoop=1;jettySize=auto;html=1;rounded=0;strokeColor=default;align=center;verticalAlign=middle;fontFamily=Helvetica;fontSize=11;fontColor=default;labelBackgroundColor=default;endArrow=none;endFill=0;exitX=0.059;exitY=1.026;exitDx=0;exitDy=0;exitPerimeter=0;startArrow=oval;startFill=0;entryX=0.343;entryY=0.01;entryDx=0;entryDy=0;entryPerimeter=0;" parent="1" edge="1">
                    <mxGeometry width="100" relative="1" as="geometry">
                        <mxPoint x="4161.570000000001" y="425.5800000000001" as="sourcePoint"/>
                        <mxPoint x="4161.1500000000015" y="450.68" as="targetPoint"/>
                        <Array as="points"/>
                    </mxGeometry>
                </mxCell>
                <mxCell id="228" value="" style="edgeStyle=none;orthogonalLoop=1;jettySize=auto;html=1;rounded=0;strokeColor=default;align=center;verticalAlign=middle;fontFamily=Helvetica;fontSize=11;fontColor=default;labelBackgroundColor=default;endArrow=none;endFill=0;exitX=0.059;exitY=1.026;exitDx=0;exitDy=0;exitPerimeter=0;startArrow=oval;startFill=0;" parent="1" edge="1">
                    <mxGeometry width="100" relative="1" as="geometry">
                        <mxPoint x="4136.4400000000005" y="402.1200000000001" as="sourcePoint"/>
                        <mxPoint x="4136.220000000001" y="452.5600000000002" as="targetPoint"/>
                        <Array as="points"/>
                    </mxGeometry>
                </mxCell>
                <mxCell id="233" value="" style="rounded=0;orthogonalLoop=1;jettySize=auto;html=1;startArrow=oval;startFill=0;endArrow=none;endFill=0;exitX=0.008;exitY=0.567;exitDx=0;exitDy=0;exitPerimeter=0;" parent="1" source="234" edge="1" target="262">
                    <mxGeometry relative="1" as="geometry">
                        <mxPoint x="3190.240000000001" y="761.4699999999998" as="targetPoint"/>
                        <mxPoint x="3235.5" y="757.6499999999999" as="sourcePoint"/>
                    </mxGeometry>
                </mxCell>
                <mxCell id="234" value="giorno" style="text;html=1;align=center;verticalAlign=middle;resizable=0;points=[];autosize=1;strokeColor=none;fillColor=none;" parent="1" vertex="1">
                    <mxGeometry x="3242.5700000000006" y="745.1299999999999" width="60" height="30" as="geometry"/>
                </mxCell>
                <mxCell id="235" value="" style="rounded=0;orthogonalLoop=1;jettySize=auto;html=1;startArrow=oval;startFill=0;endArrow=none;endFill=0;exitX=-0.001;exitY=0.501;exitDx=0;exitDy=0;exitPerimeter=0;" parent="1" source="236" edge="1" target="262">
                    <mxGeometry relative="1" as="geometry">
                        <mxPoint x="3205.0000000000005" y="745.8499999999999" as="targetPoint"/>
                        <mxPoint x="3240" y="742.48" as="sourcePoint"/>
                        <Array as="points"/>
                    </mxGeometry>
                </mxCell>
                <mxCell id="236" value="annullata" style="text;html=1;align=center;verticalAlign=middle;resizable=0;points=[];autosize=1;strokeColor=none;fillColor=none;" parent="1" vertex="1">
                    <mxGeometry x="3242.57" y="730.13" width="70" height="30" as="geometry"/>
                </mxCell>
                <mxCell id="237" value="" style="edgeStyle=orthogonalEdgeStyle;rounded=0;orthogonalLoop=1;jettySize=auto;html=1;endArrow=none;endFill=0;" parent="1" source="241" edge="1">
                    <mxGeometry relative="1" as="geometry">
                        <mxPoint x="3054.9999999999995" y="388.6500000000001" as="targetPoint"/>
                    </mxGeometry>
                </mxCell>
                <mxCell id="238" style="rounded=0;orthogonalLoop=1;jettySize=auto;html=1;endArrow=oval;endFill=0;" parent="1" source="241" target="271" edge="1">
                    <mxGeometry relative="1" as="geometry"/>
                </mxCell>
                <mxCell id="239" style="rounded=0;orthogonalLoop=1;jettySize=auto;html=1;endArrow=oval;endFill=0;entryX=0.95;entryY=0.512;entryDx=0;entryDy=0;entryPerimeter=0;" parent="1" source="241" target="272" edge="1">
                    <mxGeometry relative="1" as="geometry"/>
                </mxCell>
                <mxCell id="240" style="rounded=0;orthogonalLoop=1;jettySize=auto;html=1;endArrow=oval;endFill=0;entryX=0.966;entryY=0.527;entryDx=0;entryDy=0;entryPerimeter=0;" parent="1" source="241" target="273" edge="1">
                    <mxGeometry relative="1" as="geometry"/>
                </mxCell>
                <mxCell id="241" value="Pagamento" style="whiteSpace=wrap;html=1;" parent="1" vertex="1">
                    <mxGeometry x="2995" y="297.65000000000003" width="120" height="60" as="geometry"/>
                </mxCell>
                <mxCell id="242" value="" style="edgeStyle=orthogonalEdgeStyle;rounded=0;orthogonalLoop=1;jettySize=auto;html=1;endArrow=none;endFill=0;exitX=0.75;exitY=0;exitDx=0;exitDy=0;entryX=0.5;entryY=1;entryDx=0;entryDy=0;" parent="1" source="245" target="258" edge="1">
                    <mxGeometry relative="1" as="geometry"/>
                </mxCell>
                <mxCell id="243" value="" style="edgeStyle=orthogonalEdgeStyle;rounded=0;orthogonalLoop=1;jettySize=auto;html=1;endArrow=none;endFill=0;" parent="1" source="245" target="261" edge="1">
                    <mxGeometry relative="1" as="geometry"/>
                </mxCell>
                <mxCell id="244" style="rounded=0;orthogonalLoop=1;jettySize=auto;html=1;endArrow=oval;endFill=0;entryX=0.016;entryY=0.576;entryDx=0;entryDy=0;entryPerimeter=0;" parent="1" source="245" target="288" edge="1">
                    <mxGeometry relative="1" as="geometry">
                        <mxPoint x="3326" y="483.6499999999999" as="targetPoint"/>
                    </mxGeometry>
                </mxCell>
                <mxCell id="245" value="Ordine" style="whiteSpace=wrap;html=1;" parent="1" vertex="1">
                    <mxGeometry x="3070" y="512.6499999999999" width="120" height="60" as="geometry"/>
                </mxCell>
                <mxCell id="246" style="rounded=0;orthogonalLoop=1;jettySize=auto;html=1;endArrow=oval;endFill=1;entryX=1.009;entryY=0.51;entryDx=0;entryDy=0;entryPerimeter=0;" parent="1" source="252" target="275" edge="1">
                    <mxGeometry relative="1" as="geometry"/>
                </mxCell>
                <mxCell id="247" style="rounded=0;orthogonalLoop=1;jettySize=auto;html=1;endArrow=oval;endFill=0;entryX=0.995;entryY=0.49;entryDx=0;entryDy=0;entryPerimeter=0;" parent="1" source="252" target="276" edge="1">
                    <mxGeometry relative="1" as="geometry"/>
                </mxCell>
                <mxCell id="248" style="rounded=0;orthogonalLoop=1;jettySize=auto;html=1;strokeColor=default;align=center;verticalAlign=middle;fontFamily=Helvetica;fontSize=11;fontColor=default;labelBackgroundColor=default;endArrow=oval;endFill=0;entryX=1.007;entryY=0.471;entryDx=0;entryDy=0;entryPerimeter=0;" parent="1" source="252" target="277" edge="1">
                    <mxGeometry relative="1" as="geometry"/>
                </mxCell>
                <mxCell id="249" style="rounded=0;orthogonalLoop=1;jettySize=auto;html=1;strokeColor=default;align=center;verticalAlign=middle;fontFamily=Helvetica;fontSize=11;fontColor=default;labelBackgroundColor=default;endArrow=oval;endFill=0;entryX=1.009;entryY=0.557;entryDx=0;entryDy=0;entryPerimeter=0;" parent="1" source="252" target="278" edge="1">
                    <mxGeometry relative="1" as="geometry"/>
                </mxCell>
                <mxCell id="250" style="rounded=0;orthogonalLoop=1;jettySize=auto;html=1;strokeColor=default;align=center;verticalAlign=middle;fontFamily=Helvetica;fontSize=11;fontColor=default;labelBackgroundColor=default;endArrow=oval;endFill=0;entryX=1.001;entryY=0.519;entryDx=0;entryDy=0;entryPerimeter=0;" parent="1" source="252" target="279" edge="1">
                    <mxGeometry relative="1" as="geometry"/>
                </mxCell>
                <mxCell id="251" value="" style="edgeStyle=orthogonalEdgeStyle;rounded=0;orthogonalLoop=1;jettySize=auto;html=1;endArrow=none;endFill=0;" parent="1" source="252" target="256" edge="1">
                    <mxGeometry relative="1" as="geometry"/>
                </mxCell>
                <mxCell id="252" value="Operatore" style="whiteSpace=wrap;html=1;" parent="1" vertex="1">
                    <mxGeometry x="2890" y="632.65" width="120" height="60" as="geometry"/>
                </mxCell>
                <mxCell id="253" style="edgeStyle=orthogonalEdgeStyle;rounded=0;orthogonalLoop=1;jettySize=auto;html=1;entryX=0.25;entryY=0;entryDx=0;entryDy=0;endArrow=none;endFill=0;" parent="1" source="254" target="245" edge="1">
                    <mxGeometry relative="1" as="geometry"/>
                </mxCell>
                <mxCell id="254" value="associazione" style="shape=rhombus;perimeter=rhombusPerimeter;whiteSpace=wrap;html=1;align=center;" parent="1" vertex="1">
                    <mxGeometry x="2995" y="386.65" width="120" height="60" as="geometry"/>
                </mxCell>
                <mxCell id="255" value="" style="edgeStyle=orthogonalEdgeStyle;rounded=0;orthogonalLoop=1;jettySize=auto;html=1;endArrow=none;endFill=0;" parent="1" source="256" target="245" edge="1">
                    <mxGeometry relative="1" as="geometry"/>
                </mxCell>
                <mxCell id="256" value="gestione" style="shape=rhombus;perimeter=rhombusPerimeter;whiteSpace=wrap;html=1;align=center;" parent="1" vertex="1">
                    <mxGeometry x="2890" y="512.6499999999999" width="120" height="60" as="geometry"/>
                </mxCell>
                <mxCell id="257" value="" style="edgeStyle=orthogonalEdgeStyle;rounded=0;orthogonalLoop=1;jettySize=auto;html=1;endArrow=none;endFill=0;entryX=0.5;entryY=1;entryDx=0;entryDy=0;" parent="1" target="259" edge="1">
                    <mxGeometry relative="1" as="geometry">
                        <mxPoint x="3205.0000000000005" y="388.6500000000001" as="sourcePoint"/>
                    </mxGeometry>
                </mxCell>
                <mxCell id="258" value="appartenenza" style="shape=rhombus;perimeter=rhombusPerimeter;whiteSpace=wrap;html=1;align=center;" parent="1" vertex="1">
                    <mxGeometry x="3145" y="386.65" width="120" height="60" as="geometry"/>
                </mxCell>
                <mxCell id="259" value="Tipologia" style="whiteSpace=wrap;html=1;" parent="1" vertex="1">
                    <mxGeometry x="3145" y="297.65000000000003" width="120" height="60" as="geometry"/>
                </mxCell>
                <mxCell id="260" style="edgeStyle=none;html=1;entryX=0.5;entryY=0;entryDx=0;entryDy=0;endArrow=none;endFill=0;" parent="1" source="261" target="262" edge="1">
                    <mxGeometry relative="1" as="geometry"/>
                </mxCell>
                <mxCell id="261" value="comprendere" style="shape=rhombus;perimeter=rhombusPerimeter;whiteSpace=wrap;html=1;align=center;" parent="1" vertex="1">
                    <mxGeometry x="3069.5" y="621.65" width="120" height="60" as="geometry"/>
                </mxCell>
                <mxCell id="459" style="edgeStyle=orthogonalEdgeStyle;html=1;entryX=1;entryY=0.5;entryDx=0;entryDy=0;endArrow=none;endFill=0;rounded=0;" edge="1" parent="1" source="262" target="458">
                    <mxGeometry relative="1" as="geometry"/>
                </mxCell>
                <mxCell id="262" value="Prenotazione" style="whiteSpace=wrap;html=1;" parent="1" vertex="1">
                    <mxGeometry x="3070" y="723.65" width="120" height="60" as="geometry"/>
                </mxCell>
                <mxCell id="263" value="(1,1)" style="text;html=1;align=center;verticalAlign=middle;resizable=0;points=[];autosize=1;strokeColor=none;fillColor=none;" parent="1" vertex="1">
                    <mxGeometry x="3010" y="352.65" width="50" height="30" as="geometry"/>
                </mxCell>
                <mxCell id="264" value="(1,1)" style="text;html=1;align=center;verticalAlign=middle;resizable=0;points=[];autosize=1;strokeColor=none;fillColor=none;" parent="1" vertex="1">
                    <mxGeometry x="3024.57" y="538.9999999999999" width="50" height="30" as="geometry"/>
                </mxCell>
                <mxCell id="265" value="(1,1)" style="text;html=1;align=center;verticalAlign=middle;resizable=0;points=[];autosize=1;strokeColor=none;fillColor=none;" parent="1" vertex="1">
                    <mxGeometry x="3155" y="482.6499999999999" width="50" height="30" as="geometry"/>
                </mxCell>
                <mxCell id="266" value="(1,1)" style="text;html=1;align=center;verticalAlign=middle;resizable=0;points=[];autosize=1;strokeColor=none;fillColor=none;" parent="1" vertex="1">
                    <mxGeometry x="3060" y="481.1499999999999" width="50" height="30" as="geometry"/>
                </mxCell>
                <mxCell id="267" value="(1,N)" style="text;html=1;align=center;verticalAlign=middle;resizable=0;points=[];autosize=1;strokeColor=none;fillColor=none;" parent="1" vertex="1">
                    <mxGeometry x="3205" y="352.65" width="50" height="30" as="geometry"/>
                </mxCell>
                <mxCell id="268" value="(1,1)" style="text;html=1;align=center;verticalAlign=middle;resizable=0;points=[];autosize=1;strokeColor=none;fillColor=none;" parent="1" vertex="1">
                    <mxGeometry x="3200.5" y="515" width="50" height="30" as="geometry"/>
                </mxCell>
                <mxCell id="269" value="(1,N)" style="text;html=1;align=center;verticalAlign=middle;resizable=0;points=[];autosize=1;strokeColor=none;fillColor=none;" parent="1" vertex="1">
                    <mxGeometry x="2946" y="602.6499999999999" width="50" height="30" as="geometry"/>
                </mxCell>
                <mxCell id="270" value="codice" style="text;html=1;align=center;verticalAlign=middle;resizable=0;points=[];autosize=1;strokeColor=none;fillColor=none;horizontal=1;" parent="1" vertex="1">
                    <mxGeometry x="2880" y="292.65000000000003" width="60" height="30" as="geometry"/>
                </mxCell>
                <mxCell id="271" value="&lt;div&gt;stato (1,2)&lt;/div&gt;" style="text;html=1;align=center;verticalAlign=middle;resizable=0;points=[];autosize=1;strokeColor=none;fillColor=none;" parent="1" vertex="1">
                    <mxGeometry x="2861" y="312.65000000000003" width="80" height="30" as="geometry"/>
                </mxCell>
                <mxCell id="272" value="&lt;div align=&quot;center&quot;&gt;metodo (1,N)&lt;/div&gt;" style="text;html=1;align=center;verticalAlign=middle;resizable=0;points=[];autosize=1;strokeColor=none;fillColor=none;" parent="1" vertex="1">
                    <mxGeometry x="2855" y="332.65000000000003" width="90" height="30" as="geometry"/>
                </mxCell>
                <mxCell id="273" value="&lt;div&gt;costo totale&lt;br&gt;&lt;/div&gt;" style="text;html=1;align=center;verticalAlign=middle;resizable=0;points=[];autosize=1;strokeColor=none;fillColor=none;" parent="1" vertex="1">
                    <mxGeometry x="2855" y="352.65" width="90" height="30" as="geometry"/>
                </mxCell>
                <mxCell id="274" style="rounded=0;orthogonalLoop=1;jettySize=auto;html=1;endArrow=oval;endFill=1;exitX=0.003;exitY=0.2;exitDx=0;exitDy=0;exitPerimeter=0;" parent="1" source="241" target="270" edge="1">
                    <mxGeometry relative="1" as="geometry">
                        <mxPoint x="3005" y="267.65" as="targetPoint"/>
                    </mxGeometry>
                </mxCell>
                <mxCell id="275" value="codice fiscale" style="text;html=1;align=center;verticalAlign=middle;resizable=0;points=[];autosize=1;strokeColor=none;fillColor=none;" parent="1" vertex="1">
                    <mxGeometry x="2765" y="592.65" width="100" height="30" as="geometry"/>
                </mxCell>
                <mxCell id="276" value="nome" style="text;html=1;align=center;verticalAlign=middle;resizable=0;points=[];autosize=1;strokeColor=none;fillColor=none;" parent="1" vertex="1">
                    <mxGeometry x="2805" y="612.6499999999999" width="60" height="30" as="geometry"/>
                </mxCell>
                <mxCell id="277" value="cognome" style="text;html=1;align=center;verticalAlign=middle;resizable=0;points=[];autosize=1;strokeColor=none;fillColor=none;" parent="1" vertex="1">
                    <mxGeometry x="2785" y="632.65" width="80" height="30" as="geometry"/>
                </mxCell>
                <mxCell id="278" value="data di nascita" style="text;html=1;align=center;verticalAlign=middle;resizable=0;points=[];autosize=1;strokeColor=none;fillColor=none;" parent="1" vertex="1">
                    <mxGeometry x="2760" y="652.65" width="100" height="30" as="geometry"/>
                </mxCell>
                <mxCell id="279" value="data di assunzione" style="text;html=1;align=center;verticalAlign=middle;resizable=0;points=[];autosize=1;strokeColor=none;fillColor=none;" parent="1" vertex="1">
                    <mxGeometry x="2730" y="672.65" width="130" height="30" as="geometry"/>
                </mxCell>
                <mxCell id="280" value="numero di telefono (1,N)" style="text;html=1;align=center;verticalAlign=middle;resizable=0;points=[];autosize=1;strokeColor=none;fillColor=none;" parent="1" vertex="1">
                    <mxGeometry x="2720" y="702.65" width="160" height="30" as="geometry"/>
                </mxCell>
                <mxCell id="281" value="iban" style="text;html=1;align=center;verticalAlign=middle;resizable=0;points=[];autosize=1;strokeColor=none;fillColor=none;" parent="1" vertex="1">
                    <mxGeometry x="2921" y="732.65" width="50" height="30" as="geometry"/>
                </mxCell>
                <mxCell id="282" style="rounded=0;orthogonalLoop=1;jettySize=auto;html=1;entryX=0.981;entryY=0.49;entryDx=0;entryDy=0;entryPerimeter=0;strokeColor=default;align=center;verticalAlign=middle;fontFamily=Helvetica;fontSize=11;fontColor=default;labelBackgroundColor=default;endArrow=oval;endFill=0;" parent="1" source="252" target="280" edge="1">
                    <mxGeometry relative="1" as="geometry"/>
                </mxCell>
                <mxCell id="283" style="rounded=0;orthogonalLoop=1;jettySize=auto;html=1;strokeColor=default;align=center;verticalAlign=middle;fontFamily=Helvetica;fontSize=11;fontColor=default;labelBackgroundColor=default;endArrow=oval;endFill=0;" parent="1" source="252" target="281" edge="1">
                    <mxGeometry relative="1" as="geometry">
                        <mxPoint x="2960" y="737.65" as="targetPoint"/>
                    </mxGeometry>
                </mxCell>
                <mxCell id="284" value="email (1,N)" style="text;html=1;align=center;verticalAlign=middle;resizable=0;points=[];autosize=1;strokeColor=none;fillColor=none;" parent="1" vertex="1">
                    <mxGeometry x="2855" y="727.65" width="80" height="30" as="geometry"/>
                </mxCell>
                <mxCell id="285" style="rounded=0;orthogonalLoop=1;jettySize=auto;html=1;strokeColor=default;align=center;verticalAlign=middle;fontFamily=Helvetica;fontSize=11;fontColor=default;labelBackgroundColor=default;endArrow=oval;endFill=0;" parent="1" source="252" target="284" edge="1">
                    <mxGeometry relative="1" as="geometry"/>
                </mxCell>
                <mxCell id="286" value="n giorni prenotati totali" style="text;html=1;align=center;verticalAlign=middle;resizable=0;points=[];autosize=1;strokeColor=none;fillColor=none;" parent="1" vertex="1">
                    <mxGeometry x="3230.5000000000005" y="466.15" width="140" height="30" as="geometry"/>
                </mxCell>
                <mxCell id="287" value="n ore prenotate totali" style="text;html=1;align=center;verticalAlign=middle;resizable=0;points=[];autosize=1;strokeColor=none;fillColor=none;" parent="1" vertex="1">
                    <mxGeometry x="3230.5000000000005" y="480.62999999999994" width="130" height="30" as="geometry"/>
                </mxCell>
                <mxCell id="288" value="annullato" style="text;html=1;align=center;verticalAlign=middle;resizable=0;points=[];autosize=1;strokeColor=none;fillColor=none;" parent="1" vertex="1">
                    <mxGeometry x="3232.57" y="494.47999999999996" width="70" height="30" as="geometry"/>
                </mxCell>
                <mxCell id="289" value="" style="rounded=0;orthogonalLoop=1;jettySize=auto;html=1;endArrow=none;endFill=0;startArrow=oval;startFill=1;" parent="1" source="290" target="259" edge="1">
                    <mxGeometry relative="1" as="geometry"/>
                </mxCell>
                <mxCell id="290" value="nome" style="text;html=1;align=center;verticalAlign=middle;resizable=0;points=[];autosize=1;strokeColor=none;fillColor=none;" parent="1" vertex="1">
                    <mxGeometry x="3310" y="312.65000000000003" width="50" height="30" as="geometry"/>
                </mxCell>
                <mxCell id="291" value="" style="rounded=0;orthogonalLoop=1;jettySize=auto;html=1;endArrow=none;endFill=0;startArrow=oval;startFill=0;exitX=0.064;exitY=0.571;exitDx=0;exitDy=0;exitPerimeter=0;" parent="1" source="292" target="259" edge="1">
                    <mxGeometry relative="1" as="geometry"/>
                </mxCell>
                <mxCell id="292" value="valore" style="text;html=1;align=center;verticalAlign=middle;resizable=0;points=[];autosize=1;strokeColor=none;fillColor=none;" parent="1" vertex="1">
                    <mxGeometry x="3305" y="332.65000000000003" width="60" height="30" as="geometry"/>
                </mxCell>
                <mxCell id="293" value="" style="rounded=0;orthogonalLoop=1;jettySize=auto;html=1;endArrow=none;endFill=0;startArrow=oval;startFill=0;exitX=0.028;exitY=0.538;exitDx=0;exitDy=0;exitPerimeter=0;" parent="1" target="259" edge="1">
                    <mxGeometry relative="1" as="geometry">
                        <mxPoint x="3308.9199999999996" y="373.78999999999996" as="sourcePoint"/>
                    </mxGeometry>
                </mxCell>
                <mxCell id="294" value="n giorni" style="text;html=1;align=center;verticalAlign=middle;resizable=0;points=[];autosize=1;strokeColor=none;fillColor=none;" parent="1" vertex="1">
                    <mxGeometry x="3310" y="356.65000000000003" width="60" height="30" as="geometry"/>
                </mxCell>
                <mxCell id="295" style="rounded=0;orthogonalLoop=1;jettySize=auto;html=1;entryX=0.029;entryY=0.503;entryDx=0;entryDy=0;entryPerimeter=0;strokeColor=default;align=center;verticalAlign=middle;fontFamily=Helvetica;fontSize=11;fontColor=default;labelBackgroundColor=default;endArrow=oval;endFill=0;" parent="1" source="245" target="287" edge="1">
                    <mxGeometry relative="1" as="geometry"/>
                </mxCell>
                <mxCell id="296" style="rounded=0;orthogonalLoop=1;jettySize=auto;html=1;entryX=0.02;entryY=0.521;entryDx=0;entryDy=0;entryPerimeter=0;strokeColor=default;align=center;verticalAlign=middle;fontFamily=Helvetica;fontSize=11;fontColor=default;labelBackgroundColor=default;endArrow=oval;endFill=0;" parent="1" source="245" target="286" edge="1">
                    <mxGeometry relative="1" as="geometry"/>
                </mxCell>
                <mxCell id="297" style="rounded=0;orthogonalLoop=1;jettySize=auto;html=1;entryX=0.037;entryY=0.321;entryDx=0;entryDy=0;entryPerimeter=0;strokeColor=default;align=center;verticalAlign=middle;fontFamily=Helvetica;fontSize=11;fontColor=default;labelBackgroundColor=default;endArrow=oval;endFill=0;" parent="1" source="245" target="300" edge="1">
                    <mxGeometry relative="1" as="geometry">
                        <mxPoint x="3224.7200000000003" y="459.73999999999984" as="targetPoint"/>
                    </mxGeometry>
                </mxCell>
                <mxCell id="298" value="(1,1)" style="text;html=1;align=center;verticalAlign=middle;resizable=0;points=[];autosize=1;strokeColor=none;fillColor=none;" parent="1" vertex="1">
                    <mxGeometry x="3125" y="693.65" width="50" height="30" as="geometry"/>
                </mxCell>
                <mxCell id="299" value="(0,N)" style="text;html=1;align=center;verticalAlign=middle;resizable=0;points=[];autosize=1;strokeColor=none;fillColor=none;" parent="1" vertex="1">
                    <mxGeometry x="3125" y="572.6499999999999" width="50" height="30" as="geometry"/>
                </mxCell>
                <mxCell id="300" value="timestamp" style="text;html=1;align=center;verticalAlign=middle;resizable=0;points=[];autosize=1;strokeColor=none;fillColor=none;" parent="1" vertex="1">
                    <mxGeometry x="3255" y="571.9999999999999" width="80" height="30" as="geometry"/>
                </mxCell>
                <mxCell id="301" value="" style="rounded=0;orthogonalLoop=1;jettySize=auto;html=1;endArrow=oval;endFill=1;entryX=1.028;entryY=0.524;entryDx=0;entryDy=0;entryPerimeter=0;" parent="1" source="310" target="305" edge="1">
                    <mxGeometry relative="1" as="geometry">
                        <mxPoint x="3037" y="948.65" as="targetPoint"/>
                    </mxGeometry>
                </mxCell>
                <mxCell id="302" value="" style="edgeStyle=none;html=1;strokeWidth=1;endArrow=none;endFill=0;" parent="1" source="310" target="306" edge="1">
                    <mxGeometry relative="1" as="geometry"/>
                </mxCell>
                <mxCell id="303" style="edgeStyle=none;html=1;strokeWidth=1;endArrow=none;endFill=0;entryX=0.5;entryY=1;entryDx=0;entryDy=0;" parent="1" source="306" target="262" edge="1">
                    <mxGeometry relative="1" as="geometry">
                        <mxPoint x="3063.38" y="754.3175900277009" as="targetPoint"/>
                    </mxGeometry>
                </mxCell>
                <mxCell id="304" value="(1,1)" style="text;html=1;align=center;verticalAlign=middle;resizable=0;points=[];autosize=1;strokeColor=none;fillColor=none;" parent="1" vertex="1">
                    <mxGeometry x="3127.5" y="787.65" width="50" height="30" as="geometry"/>
                </mxCell>
                <mxCell id="305" value="codice" style="text;html=1;align=center;verticalAlign=middle;resizable=0;points=[];autosize=1;strokeColor=none;fillColor=none;" parent="1" vertex="1">
                    <mxGeometry x="2973.07" y="916.85" width="60" height="30" as="geometry"/>
                </mxCell>
                <mxCell id="306" value="oggetto di" style="shape=rhombus;perimeter=rhombusPerimeter;whiteSpace=wrap;html=1;align=center;" parent="1" vertex="1">
                    <mxGeometry x="3070" y="819.65" width="120" height="60" as="geometry"/>
                </mxCell>
                <mxCell id="307" style="edgeStyle=none;html=1;exitX=-0.005;exitY=0.596;exitDx=0;exitDy=0;entryX=1.011;entryY=0.499;entryDx=0;entryDy=0;entryPerimeter=0;strokeWidth=1;endArrow=oval;endFill=0;exitPerimeter=0;" parent="1" source="310" target="313" edge="1">
                    <mxGeometry relative="1" as="geometry"/>
                </mxCell>
                <mxCell id="308" style="edgeStyle=none;html=1;exitX=0;exitY=0.75;exitDx=0;exitDy=0;entryX=0.989;entryY=0.505;entryDx=0;entryDy=0;entryPerimeter=0;strokeWidth=1;endArrow=oval;endFill=0;" parent="1" source="310" target="314" edge="1">
                    <mxGeometry relative="1" as="geometry"/>
                </mxCell>
                <mxCell id="309" value="" style="edgeStyle=orthogonalEdgeStyle;rounded=0;orthogonalLoop=1;jettySize=auto;html=1;strokeColor=default;align=center;verticalAlign=middle;fontFamily=Helvetica;fontSize=11;fontColor=default;labelBackgroundColor=default;endArrow=none;endFill=0;" parent="1" source="310" target="355" edge="1">
                    <mxGeometry relative="1" as="geometry"/>
                </mxCell>
                <mxCell id="310" value="Sala" style="whiteSpace=wrap;html=1;" parent="1" vertex="1">
                    <mxGeometry x="3069.5" y="918.65" width="120" height="60" as="geometry"/>
                </mxCell>
                <mxCell id="311" value="(1,N)" style="text;html=1;align=center;verticalAlign=middle;resizable=0;points=[];autosize=1;strokeColor=none;fillColor=none;" parent="1" vertex="1">
                    <mxGeometry x="3127.5" y="886.85" width="50" height="30" as="geometry"/>
                </mxCell>
                <mxCell id="313" value="piano" style="text;html=1;align=center;verticalAlign=middle;resizable=0;points=[];autosize=1;strokeColor=none;fillColor=none;" parent="1" vertex="1">
                    <mxGeometry x="2981.0699999999997" y="935.85" width="50" height="30" as="geometry"/>
                </mxCell>
                <mxCell id="314" value="numero" style="text;html=1;align=center;verticalAlign=middle;resizable=0;points=[];autosize=1;strokeColor=none;fillColor=none;" parent="1" vertex="1">
                    <mxGeometry x="2971" y="954.75" width="60" height="30" as="geometry"/>
                </mxCell>
                <mxCell id="315" value="" style="edgeStyle=orthogonalEdgeStyle;rounded=0;html=1;startArrow=none;startFill=0;endArrow=none;endFill=0;" parent="1" source="353" target="354" edge="1">
                    <mxGeometry relative="1" as="geometry"/>
                </mxCell>
                <mxCell id="316" style="html=1;startArrow=none;startFill=0;endArrow=oval;endFill=1;entryX=0.973;entryY=0.585;entryDx=0;entryDy=0;entryPerimeter=0;rounded=0;" parent="1" source="347" target="335" edge="1">
                    <mxGeometry relative="1" as="geometry">
                        <mxPoint x="2813.8199999999997" y="1024.65" as="targetPoint"/>
                        <mxPoint x="2764.26" y="1024.65" as="sourcePoint"/>
                    </mxGeometry>
                </mxCell>
                <mxCell id="317" value="" style="edgeStyle=orthogonalEdgeStyle;rounded=0;html=1;startArrow=none;startFill=0;endArrow=none;endFill=0;" parent="1" source="355" target="347" edge="1">
                    <mxGeometry relative="1" as="geometry"/>
                </mxCell>
                <mxCell id="318" value="" style="edgeStyle=orthogonalEdgeStyle;rounded=0;orthogonalLoop=1;jettySize=auto;html=1;strokeColor=default;align=center;verticalAlign=middle;fontFamily=Helvetica;fontSize=11;fontColor=default;labelBackgroundColor=default;endArrow=none;endFill=0;entryX=1;entryY=0.5;entryDx=0;entryDy=0;" parent="1" source="320" target="310" edge="1">
                    <mxGeometry relative="1" as="geometry"/>
                </mxCell>
                <mxCell id="319" style="edgeStyle=orthogonalEdgeStyle;rounded=0;orthogonalLoop=1;jettySize=auto;html=1;entryX=-0.003;entryY=0.331;entryDx=0;entryDy=0;strokeColor=default;align=center;verticalAlign=middle;fontFamily=Helvetica;fontSize=11;fontColor=default;labelBackgroundColor=default;endArrow=none;endFill=0;entryPerimeter=0;" parent="1" source="320" target="353" edge="1">
                    <mxGeometry relative="1" as="geometry">
                        <Array as="points"/>
                    </mxGeometry>
                </mxCell>
                <mxCell id="320" value="assegnazione" style="shape=rhombus;perimeter=rhombusPerimeter;whiteSpace=wrap;html=1;align=center;" parent="1" vertex="1">
                    <mxGeometry x="3250.5" y="918.85" width="120" height="60" as="geometry"/>
                </mxCell>
                <mxCell id="321" style="edgeStyle=orthogonalEdgeStyle;rounded=0;orthogonalLoop=1;jettySize=auto;html=1;entryX=0.5;entryY=0;entryDx=0;entryDy=0;strokeColor=default;align=center;verticalAlign=middle;fontFamily=Helvetica;fontSize=11;fontColor=default;labelBackgroundColor=default;endArrow=classic;endFill=1;" parent="1" source="322" target="353" edge="1">
                    <mxGeometry relative="1" as="geometry"/>
                </mxCell>
                <mxCell id="322" value="Tecnico del Suono" style="whiteSpace=wrap;html=1;" parent="1" vertex="1">
                    <mxGeometry x="3302.57" y="803.35" width="120" height="60" as="geometry"/>
                </mxCell>
                <mxCell id="323" style="edgeStyle=orthogonalEdgeStyle;rounded=0;orthogonalLoop=1;jettySize=auto;html=1;entryX=0.5;entryY=0;entryDx=0;entryDy=0;strokeColor=default;align=center;verticalAlign=middle;fontFamily=Helvetica;fontSize=11;fontColor=default;labelBackgroundColor=default;endArrow=classic;endFill=1;" parent="1" source="324" target="353" edge="1">
                    <mxGeometry relative="1" as="geometry"/>
                </mxCell>
                <mxCell id="324" value="Fonico" style="whiteSpace=wrap;html=1;" parent="1" vertex="1">
                    <mxGeometry x="3426.57" y="803.35" width="120" height="60" as="geometry"/>
                </mxCell>
                <mxCell id="325" style="rounded=0;orthogonalLoop=1;jettySize=auto;html=1;strokeColor=default;align=center;verticalAlign=middle;fontFamily=Helvetica;fontSize=11;fontColor=default;labelBackgroundColor=default;endArrow=none;endFill=0;entryX=1;entryY=0.044;entryDx=0;entryDy=0;entryPerimeter=0;exitX=-0.048;exitY=0.556;exitDx=0;exitDy=0;exitPerimeter=0;startArrow=oval;startFill=1;" parent="1" source="337" edge="1">
                    <mxGeometry relative="1" as="geometry">
                        <mxPoint x="3536.9300000000007" y="931.8899999999999" as="targetPoint"/>
                    </mxGeometry>
                </mxCell>
                <mxCell id="326" style="edgeStyle=none;rounded=0;orthogonalLoop=1;jettySize=auto;html=1;entryX=1;entryY=0.156;entryDx=0;entryDy=0;entryPerimeter=0;strokeColor=default;align=center;verticalAlign=middle;fontFamily=Helvetica;fontSize=11;fontColor=default;labelBackgroundColor=default;endArrow=none;endFill=0;exitX=-0.072;exitY=0.556;exitDx=0;exitDy=0;exitPerimeter=0;startArrow=oval;startFill=0;" parent="1" source="338" edge="1">
                    <mxGeometry relative="1" as="geometry">
                        <mxPoint x="3536.9300000000007" y="938.6100000000001" as="targetPoint"/>
                    </mxGeometry>
                </mxCell>
                <mxCell id="327" style="edgeStyle=none;rounded=0;orthogonalLoop=1;jettySize=auto;html=1;entryX=1.003;entryY=0.317;entryDx=0;entryDy=0;entryPerimeter=0;strokeColor=default;align=center;verticalAlign=middle;fontFamily=Helvetica;fontSize=11;fontColor=default;labelBackgroundColor=default;endArrow=none;endFill=0;startArrow=oval;startFill=0;exitX=-0.054;exitY=0.567;exitDx=0;exitDy=0;exitPerimeter=0;" parent="1" source="339" edge="1">
                    <mxGeometry relative="1" as="geometry">
                        <mxPoint x="3537.2899999999995" y="948.2700000000004" as="targetPoint"/>
                    </mxGeometry>
                </mxCell>
                <mxCell id="328" style="edgeStyle=none;rounded=0;orthogonalLoop=1;jettySize=auto;html=1;entryX=1;entryY=0.461;entryDx=0;entryDy=0;entryPerimeter=0;strokeColor=default;align=center;verticalAlign=middle;fontFamily=Helvetica;fontSize=11;fontColor=default;labelBackgroundColor=default;endArrow=none;endFill=0;startArrow=oval;startFill=0;exitX=-0.037;exitY=0.544;exitDx=0;exitDy=0;exitPerimeter=0;" parent="1" source="340" edge="1">
                    <mxGeometry relative="1" as="geometry">
                        <mxPoint x="3536.9300000000007" y="956.9100000000008" as="targetPoint"/>
                    </mxGeometry>
                </mxCell>
                <mxCell id="329" style="edgeStyle=none;rounded=0;orthogonalLoop=1;jettySize=auto;html=1;entryX=0.997;entryY=0.583;entryDx=0;entryDy=0;entryPerimeter=0;strokeColor=default;align=center;verticalAlign=middle;fontFamily=Helvetica;fontSize=11;fontColor=default;labelBackgroundColor=default;endArrow=none;endFill=0;startArrow=oval;startFill=0;exitX=-0.031;exitY=0.556;exitDx=0;exitDy=0;exitPerimeter=0;" parent="1" source="341" edge="1">
                    <mxGeometry relative="1" as="geometry">
                        <mxPoint x="3596.9300000000003" y="974.25" as="sourcePoint"/>
                        <mxPoint x="3536.57" y="964.2300000000005" as="targetPoint"/>
                    </mxGeometry>
                </mxCell>
                <mxCell id="330" style="edgeStyle=none;rounded=0;orthogonalLoop=1;jettySize=auto;html=1;entryX=1.003;entryY=0.694;entryDx=0;entryDy=0;entryPerimeter=0;strokeColor=default;align=center;verticalAlign=middle;fontFamily=Helvetica;fontSize=11;fontColor=default;labelBackgroundColor=default;endArrow=none;endFill=0;exitX=-0.031;exitY=0.522;exitDx=0;exitDy=0;exitPerimeter=0;startArrow=oval;startFill=0;" parent="1" source="342" edge="1">
                    <mxGeometry relative="1" as="geometry">
                        <mxPoint x="3537.2899999999995" y="970.8899999999999" as="targetPoint"/>
                    </mxGeometry>
                </mxCell>
                <mxCell id="331" style="edgeStyle=none;rounded=0;orthogonalLoop=1;jettySize=auto;html=1;entryX=1;entryY=0.839;entryDx=0;entryDy=0;entryPerimeter=0;strokeColor=default;align=center;verticalAlign=middle;fontFamily=Helvetica;fontSize=11;fontColor=default;labelBackgroundColor=default;endArrow=none;endFill=0;exitX=-0.046;exitY=0.556;exitDx=0;exitDy=0;exitPerimeter=0;startArrow=oval;startFill=0;" parent="1" source="344" edge="1">
                    <mxGeometry relative="1" as="geometry">
                        <mxPoint x="3536.9300000000007" y="979.5899999999997" as="targetPoint"/>
                    </mxGeometry>
                </mxCell>
                <mxCell id="332" style="edgeStyle=none;rounded=0;orthogonalLoop=1;jettySize=auto;html=1;entryX=0.997;entryY=0.95;entryDx=0;entryDy=0;entryPerimeter=0;strokeColor=default;align=center;verticalAlign=middle;fontFamily=Helvetica;fontSize=11;fontColor=default;labelBackgroundColor=default;endArrow=none;endFill=0;exitX=-0.1;exitY=0.544;exitDx=0;exitDy=0;exitPerimeter=0;startArrow=oval;startFill=0;" parent="1" source="343" edge="1">
                    <mxGeometry relative="1" as="geometry">
                        <mxPoint x="3536.57" y="986.25" as="targetPoint"/>
                    </mxGeometry>
                </mxCell>
                <mxCell id="333" value="&lt;div align=&quot;right&quot;&gt;modello&lt;/div&gt;&lt;div align=&quot;right&quot;&gt;costruttore&lt;br&gt;&lt;/div&gt;" style="text;html=1;align=right;verticalAlign=middle;resizable=0;points=[];autosize=1;strokeColor=none;fillColor=none;fontFamily=Helvetica;fontSize=11;fontColor=default;labelBackgroundColor=default;" parent="1" vertex="1">
                    <mxGeometry x="2785" y="1033.65" width="80" height="40" as="geometry"/>
                </mxCell>
                <mxCell id="334" style="rounded=0;orthogonalLoop=1;jettySize=auto;html=1;strokeColor=default;align=center;verticalAlign=middle;fontFamily=Helvetica;fontSize=11;fontColor=default;labelBackgroundColor=default;endArrow=oval;endFill=0;" parent="1" source="347" edge="1">
                    <mxGeometry relative="1" as="geometry">
                        <mxPoint x="2873.57" y="1049" as="targetPoint"/>
                        <mxPoint x="3249.5" y="1123.65" as="sourcePoint"/>
                    </mxGeometry>
                </mxCell>
                <mxCell id="335" value="codice" style="text;html=1;align=center;verticalAlign=middle;resizable=0;points=[];autosize=1;strokeColor=none;fillColor=none;fontFamily=Helvetica;fontSize=11;fontColor=default;labelBackgroundColor=default;" parent="1" vertex="1">
                    <mxGeometry x="2814.5699999999997" y="1014.75" width="60" height="30" as="geometry"/>
                </mxCell>
                <mxCell id="336" value="" style="group" parent="1" connectable="0" vertex="1">
                    <mxGeometry x="3557.9300000000003" y="880.2500000000001" width="160" height="170" as="geometry"/>
                </mxCell>
                <mxCell id="337" value="&lt;div&gt;codice fiscale&lt;br&gt;&lt;/div&gt;" style="text;html=1;align=left;verticalAlign=middle;resizable=0;points=[];autosize=1;strokeColor=none;fillColor=none;fontFamily=Helvetica;fontSize=11;fontColor=default;labelBackgroundColor=default;" parent="336" vertex="1">
                    <mxGeometry width="90" height="30" as="geometry"/>
                </mxCell>
                <mxCell id="338" value="nome" style="text;html=1;align=left;verticalAlign=middle;resizable=0;points=[];autosize=1;strokeColor=none;fillColor=none;" parent="336" vertex="1">
                    <mxGeometry y="20" width="60" height="30" as="geometry"/>
                </mxCell>
                <mxCell id="339" value="cognome" style="text;html=1;align=left;verticalAlign=middle;resizable=0;points=[];autosize=1;strokeColor=none;fillColor=none;" parent="336" vertex="1">
                    <mxGeometry y="39" width="80" height="30" as="geometry"/>
                </mxCell>
                <mxCell id="340" value="data di nascita" style="text;html=1;align=left;verticalAlign=middle;resizable=0;points=[];autosize=1;strokeColor=none;fillColor=none;" parent="336" vertex="1">
                    <mxGeometry y="60" width="100" height="30" as="geometry"/>
                </mxCell>
                <mxCell id="341" value="data di assunzione" style="text;html=1;align=left;verticalAlign=middle;resizable=0;points=[];autosize=1;strokeColor=none;fillColor=none;" parent="336" vertex="1">
                    <mxGeometry y="79" width="130" height="30" as="geometry"/>
                </mxCell>
                <mxCell id="342" value="numero di telefono (1,N)" style="text;html=1;align=left;verticalAlign=middle;resizable=0;points=[];autosize=1;strokeColor=none;fillColor=none;" parent="336" vertex="1">
                    <mxGeometry y="99" width="160" height="30" as="geometry"/>
                </mxCell>
                <mxCell id="343" value="iban" style="text;html=1;align=left;verticalAlign=middle;resizable=0;points=[];autosize=1;strokeColor=none;fillColor=none;spacing=2;spacingTop=0;" parent="336" vertex="1">
                    <mxGeometry y="140" width="50" height="30" as="geometry"/>
                </mxCell>
                <mxCell id="344" value="email (1,N)" style="text;html=1;align=left;verticalAlign=middle;resizable=0;points=[];autosize=1;strokeColor=none;fillColor=none;" parent="336" vertex="1">
                    <mxGeometry y="120" width="80" height="30" as="geometry"/>
                </mxCell>
                <mxCell id="345" value="(1,N)" style="text;html=1;align=center;verticalAlign=middle;resizable=0;points=[];autosize=1;strokeColor=none;fillColor=none;fontFamily=Helvetica;fontSize=11;fontColor=default;labelBackgroundColor=default;" parent="1" vertex="1">
                    <mxGeometry x="3024.5699999999997" y="1038.65" width="50" height="30" as="geometry"/>
                </mxCell>
                <mxCell id="346" style="edgeStyle=none;rounded=0;orthogonalLoop=1;jettySize=auto;html=1;strokeColor=default;align=center;verticalAlign=middle;fontFamily=Helvetica;fontSize=11;fontColor=default;labelBackgroundColor=default;startArrow=none;startFill=0;endArrow=oval;endFill=0;" parent="1" source="347" edge="1">
                    <mxGeometry relative="1" as="geometry">
                        <mxPoint x="2874.57" y="1062" as="targetPoint"/>
                    </mxGeometry>
                </mxCell>
                <mxCell id="347" value="Attrezzatura" style="rounded=0;whiteSpace=wrap;html=1;" parent="1" vertex="1">
                    <mxGeometry x="2904.57" y="1008.65" width="120" height="60" as="geometry"/>
                </mxCell>
                <mxCell id="348" value="(0,N)" style="text;html=1;align=center;verticalAlign=middle;resizable=0;points=[];autosize=1;strokeColor=none;fillColor=none;fontFamily=Helvetica;fontSize=11;fontColor=default;labelBackgroundColor=default;" parent="1" vertex="1">
                    <mxGeometry x="3123.5" y="978.65" width="50" height="30" as="geometry"/>
                </mxCell>
                <mxCell id="349" value="(1,2)" style="text;html=1;align=center;verticalAlign=middle;resizable=0;points=[];autosize=1;strokeColor=none;fillColor=none;fontFamily=Helvetica;fontSize=11;fontColor=default;labelBackgroundColor=default;" parent="1" vertex="1">
                    <mxGeometry x="3190.24" y="918.85" width="50" height="30" as="geometry"/>
                </mxCell>
                <mxCell id="350" value="(1,1)" style="text;html=1;align=center;verticalAlign=middle;resizable=0;points=[];autosize=1;strokeColor=none;fillColor=none;fontFamily=Helvetica;fontSize=11;fontColor=default;labelBackgroundColor=default;" parent="1" vertex="1">
                    <mxGeometry x="3376.7400000000002" y="918.85" width="50" height="30" as="geometry"/>
                </mxCell>
                <mxCell id="351" value="(0,N)" style="text;html=1;align=center;verticalAlign=middle;resizable=0;points=[];autosize=1;strokeColor=none;fillColor=none;fontFamily=Helvetica;fontSize=11;fontColor=default;labelBackgroundColor=default;" parent="1" vertex="1">
                    <mxGeometry x="3465.57" y="984.75" width="50" height="30" as="geometry"/>
                </mxCell>
                <mxCell id="352" value="(t,s)" style="text;html=1;align=center;verticalAlign=middle;resizable=0;points=[];autosize=1;strokeColor=none;fillColor=none;fontFamily=Helvetica;fontSize=11;fontColor=default;labelBackgroundColor=default;" parent="1" vertex="1">
                    <mxGeometry x="3480.57" y="881.7500000000001" width="40" height="30" as="geometry"/>
                </mxCell>
                <mxCell id="353" value="Tecnico" style="rounded=0;whiteSpace=wrap;html=1;" parent="1" vertex="1">
                    <mxGeometry x="3416.57" y="929" width="120" height="60" as="geometry"/>
                </mxCell>
                <mxCell id="354" value="lavora a" style="shape=rhombus;perimeter=rhombusPerimeter;whiteSpace=wrap;html=1;align=center;" parent="1" vertex="1">
                    <mxGeometry x="3416.57" y="1030.25" width="120" height="60" as="geometry"/>
                </mxCell>
                <mxCell id="355" value="avere" style="shape=rhombus;perimeter=rhombusPerimeter;whiteSpace=wrap;html=1;align=center;" parent="1" vertex="1">
                    <mxGeometry x="3069.5000000000005" y="1008.65" width="120" height="60" as="geometry"/>
                </mxCell>
                <mxCell id="356" value="" style="edgeStyle=none;rounded=0;orthogonalLoop=1;jettySize=auto;html=1;strokeColor=default;align=center;verticalAlign=middle;fontFamily=Helvetica;fontSize=11;fontColor=default;labelBackgroundColor=default;endArrow=none;endFill=0;" parent="1" source="358" target="371" edge="1">
                    <mxGeometry relative="1" as="geometry"/>
                </mxCell>
                <mxCell id="357" style="rounded=0;html=1;startArrow=none;startFill=0;endArrow=oval;endFill=0;entryX=0.002;entryY=0.442;entryDx=0;entryDy=0;entryPerimeter=0;" parent="1" source="358" target="432" edge="1">
                    <mxGeometry relative="1" as="geometry">
                        <mxPoint x="3793.57" y="546.9999999999999" as="targetPoint"/>
                    </mxGeometry>
                </mxCell>
                <mxCell id="358" value="Artista" style="whiteSpace=wrap;html=1;" parent="1" vertex="1">
                    <mxGeometry x="3659.2100000000005" y="512" width="120" height="60" as="geometry"/>
                </mxCell>
                <mxCell id="359" value="" style="edgeStyle=orthogonalEdgeStyle;rounded=0;orthogonalLoop=1;jettySize=auto;html=1;endArrow=none;endFill=0;" parent="1" source="361" target="358" edge="1">
                    <mxGeometry relative="1" as="geometry"/>
                </mxCell>
                <mxCell id="360" style="rounded=0;orthogonalLoop=1;jettySize=auto;html=1;strokeColor=default;align=center;verticalAlign=middle;fontFamily=Helvetica;fontSize=11;fontColor=default;labelBackgroundColor=default;endArrow=none;endFill=0;edgeStyle=orthogonalEdgeStyle;entryX=1;entryY=0.5;entryDx=0;entryDy=0;" parent="1" source="361" target="245" edge="1">
                    <mxGeometry relative="1" as="geometry">
                        <mxPoint x="3404.57" y="530" as="targetPoint"/>
                    </mxGeometry>
                </mxCell>
                <mxCell id="361" value="effettuazione" style="shape=rhombus;perimeter=rhombusPerimeter;whiteSpace=wrap;html=1;align=center;" parent="1" vertex="1">
                    <mxGeometry x="3364.5700000000006" y="512" width="120" height="60" as="geometry"/>
                </mxCell>
                <mxCell id="362" value="(0,N)" style="text;html=1;align=center;verticalAlign=middle;resizable=0;points=[];autosize=1;strokeColor=none;fillColor=none;" parent="1" vertex="1">
                    <mxGeometry x="3609.2100000000005" y="514" width="50" height="30" as="geometry"/>
                </mxCell>
                <mxCell id="363" value="" style="rounded=0;orthogonalLoop=1;jettySize=auto;html=1;startArrow=oval;startFill=1;endArrow=none;endFill=0;exitX=0.009;exitY=0.168;exitDx=0;exitDy=0;exitPerimeter=0;" parent="1" source="432" target="358" edge="1">
                    <mxGeometry relative="1" as="geometry">
                        <mxPoint x="3784.2100000000005" y="542" as="targetPoint"/>
                    </mxGeometry>
                </mxCell>
                <mxCell id="364" value="" style="edgeStyle=none;rounded=0;orthogonalLoop=1;jettySize=auto;html=1;strokeColor=default;align=center;verticalAlign=middle;fontFamily=Helvetica;fontSize=11;fontColor=default;labelBackgroundColor=default;endArrow=none;endFill=0;" parent="1" source="370" target="371" edge="1">
                    <mxGeometry relative="1" as="geometry"/>
                </mxCell>
                <mxCell id="365" value="" style="edgeStyle=orthogonalEdgeStyle;rounded=0;orthogonalLoop=1;jettySize=auto;html=1;strokeColor=default;align=center;verticalAlign=middle;fontFamily=Helvetica;fontSize=11;fontColor=default;labelBackgroundColor=default;endArrow=none;endFill=0;" parent="1" source="370" target="411" edge="1">
                    <mxGeometry relative="1" as="geometry"/>
                </mxCell>
                <mxCell id="366" style="edgeStyle=none;rounded=0;orthogonalLoop=1;jettySize=auto;html=1;strokeColor=default;align=center;verticalAlign=middle;fontFamily=Helvetica;fontSize=11;fontColor=default;labelBackgroundColor=default;startArrow=none;startFill=0;endArrow=oval;endFill=0;" parent="1" source="370" edge="1">
                    <mxGeometry relative="1" as="geometry">
                        <mxPoint x="3558.9384210526314" y="306.2105263157895" as="targetPoint"/>
                    </mxGeometry>
                </mxCell>
                <mxCell id="367" style="edgeStyle=none;rounded=0;orthogonalLoop=1;jettySize=auto;html=1;strokeColor=default;align=center;verticalAlign=middle;fontFamily=Helvetica;fontSize=11;fontColor=default;labelBackgroundColor=default;startArrow=none;startFill=0;endArrow=oval;endFill=0;" parent="1" source="370" edge="1">
                    <mxGeometry relative="1" as="geometry">
                        <mxPoint x="3560.3419298245617" y="320.2456140350877" as="targetPoint"/>
                    </mxGeometry>
                </mxCell>
                <mxCell id="368" style="edgeStyle=none;rounded=0;orthogonalLoop=1;jettySize=auto;html=1;strokeColor=default;align=center;verticalAlign=middle;fontFamily=Helvetica;fontSize=11;fontColor=default;labelBackgroundColor=default;startArrow=none;startFill=0;endArrow=oval;endFill=0;" parent="1" source="370" edge="1">
                    <mxGeometry relative="1" as="geometry">
                        <mxPoint x="3559.6401754385965" y="332.8771929824561" as="targetPoint"/>
                    </mxGeometry>
                </mxCell>
                <mxCell id="369" style="edgeStyle=none;rounded=0;orthogonalLoop=1;jettySize=auto;html=1;strokeColor=default;align=center;verticalAlign=middle;fontFamily=Helvetica;fontSize=11;fontColor=default;labelBackgroundColor=default;startArrow=none;startFill=0;endArrow=oval;endFill=0;" parent="1" source="370" edge="1">
                    <mxGeometry relative="1" as="geometry">
                        <mxPoint x="3557.8857894736843" y="345.859649122807" as="targetPoint"/>
                    </mxGeometry>
                </mxCell>
                <mxCell id="370" value="Produzione" style="whiteSpace=wrap;html=1;" parent="1" vertex="1">
                    <mxGeometry x="3659.2100000000005" y="332" width="120" height="60" as="geometry"/>
                </mxCell>
                <mxCell id="371" value="composizione" style="shape=rhombus;perimeter=rhombusPerimeter;whiteSpace=wrap;html=1;align=center;" parent="1" vertex="1">
                    <mxGeometry x="3659.2100000000005" y="415" width="120" height="60" as="geometry"/>
                </mxCell>
                <mxCell id="372" style="edgeStyle=orthogonalEdgeStyle;rounded=0;orthogonalLoop=1;jettySize=auto;html=1;entryX=0.5;entryY=0;entryDx=0;entryDy=0;strokeColor=default;align=center;verticalAlign=middle;fontFamily=Helvetica;fontSize=11;fontColor=default;labelBackgroundColor=default;endArrow=none;endFill=0;" parent="1" source="373" target="370" edge="1">
                    <mxGeometry relative="1" as="geometry">
                        <Array as="points">
                            <mxPoint x="3611.2100000000005" y="280"/>
                            <mxPoint x="3719.2100000000005" y="280"/>
                        </Array>
                    </mxGeometry>
                </mxCell>
                <mxCell id="373" value="Singolo" style="whiteSpace=wrap;html=1;fontFamily=Helvetica;fontSize=11;fontColor=default;labelBackgroundColor=default;" parent="1" vertex="1">
                    <mxGeometry x="3551.2100000000005" y="180" width="120" height="60" as="geometry"/>
                </mxCell>
                <mxCell id="374" style="edgeStyle=orthogonalEdgeStyle;rounded=0;orthogonalLoop=1;jettySize=auto;html=1;strokeColor=default;align=center;verticalAlign=middle;fontFamily=Helvetica;fontSize=11;fontColor=default;labelBackgroundColor=default;endArrow=none;endFill=0;entryX=0.5;entryY=0;entryDx=0;entryDy=0;" parent="1" source="375" target="370" edge="1">
                    <mxGeometry relative="1" as="geometry">
                        <mxPoint x="3755.2100000000005" y="300" as="targetPoint"/>
                        <Array as="points">
                            <mxPoint x="3719.2100000000005" y="260"/>
                            <mxPoint x="3719.2100000000005" y="260"/>
                        </Array>
                    </mxGeometry>
                </mxCell>
                <mxCell id="375" value="Extended Play" style="whiteSpace=wrap;html=1;fontFamily=Helvetica;fontSize=11;fontColor=default;labelBackgroundColor=default;" parent="1" vertex="1">
                    <mxGeometry x="3671.2100000000005" y="180" width="120" height="60" as="geometry"/>
                </mxCell>
                <mxCell id="376" style="edgeStyle=orthogonalEdgeStyle;rounded=0;orthogonalLoop=1;jettySize=auto;html=1;entryX=0.5;entryY=0;entryDx=0;entryDy=0;strokeColor=default;align=center;verticalAlign=middle;fontFamily=Helvetica;fontSize=11;fontColor=default;labelBackgroundColor=default;endArrow=classic;endFill=1;" parent="1" source="377" target="370" edge="1">
                    <mxGeometry relative="1" as="geometry">
                        <Array as="points">
                            <mxPoint x="3851.2100000000005" y="280"/>
                            <mxPoint x="3719.2100000000005" y="280"/>
                        </Array>
                    </mxGeometry>
                </mxCell>
                <mxCell id="377" value="Album" style="whiteSpace=wrap;html=1;fontFamily=Helvetica;fontSize=11;fontColor=default;labelBackgroundColor=default;" parent="1" vertex="1">
                    <mxGeometry x="3791.2100000000005" y="180" width="120" height="60" as="geometry"/>
                </mxCell>
                <mxCell id="378" value="" style="edgeStyle=none;rounded=0;orthogonalLoop=1;jettySize=auto;html=1;strokeColor=default;align=center;verticalAlign=middle;fontFamily=Helvetica;fontSize=11;fontColor=default;labelBackgroundColor=default;endArrow=none;endFill=0;startArrow=oval;startFill=0;" parent="1" target="370" edge="1">
                    <mxGeometry relative="1" as="geometry">
                        <mxPoint x="3617.57" y="403" as="sourcePoint"/>
                    </mxGeometry>
                </mxCell>
                <mxCell id="379" value="titolo" style="text;html=1;align=center;verticalAlign=middle;resizable=0;points=[];autosize=1;strokeColor=none;fillColor=none;fontFamily=Helvetica;fontSize=11;fontColor=default;labelBackgroundColor=default;" parent="1" vertex="1">
                    <mxGeometry x="3574.5700000000006" y="386.65" width="50" height="30" as="geometry"/>
                </mxCell>
                <mxCell id="380" value="" style="edgeStyle=none;orthogonalLoop=1;jettySize=auto;html=1;rounded=1;strokeColor=default;align=center;verticalAlign=middle;fontFamily=Helvetica;fontSize=11;fontColor=default;labelBackgroundColor=default;endArrow=none;endFill=0;startArrow=oval;startFill=1;curved=0;" parent="1" edge="1">
                    <mxGeometry width="100" relative="1" as="geometry">
                        <mxPoint x="3644.57" y="380" as="sourcePoint"/>
                        <mxPoint x="3734.7100000000005" y="489" as="targetPoint"/>
                        <Array as="points">
                            <mxPoint x="3644.7100000000005" y="489"/>
                        </Array>
                    </mxGeometry>
                </mxCell>
                <mxCell id="381" style="edgeStyle=orthogonalEdgeStyle;rounded=0;orthogonalLoop=1;jettySize=auto;html=1;entryX=0.5;entryY=1;entryDx=0;entryDy=0;strokeColor=default;align=center;verticalAlign=middle;fontFamily=Helvetica;fontSize=11;fontColor=default;labelBackgroundColor=default;endArrow=none;endFill=0;" parent="1" edge="1">
                    <mxGeometry relative="1" as="geometry">
                        <Array as="points">
                            <mxPoint x="3871.57" y="630"/>
                            <mxPoint x="3719.57" y="630"/>
                            <mxPoint x="3719.57" y="572"/>
                        </Array>
                        <mxPoint x="3871.44" y="687" as="sourcePoint"/>
                        <mxPoint x="3731.480000000001" y="572" as="targetPoint"/>
                    </mxGeometry>
                </mxCell>
                <mxCell id="382" style="edgeStyle=orthogonalEdgeStyle;rounded=0;orthogonalLoop=1;jettySize=auto;html=1;entryX=1;entryY=0.5;entryDx=0;entryDy=0;strokeColor=default;align=center;verticalAlign=middle;fontFamily=Helvetica;fontSize=11;fontColor=default;labelBackgroundColor=default;endArrow=none;endFill=0;exitX=0.25;exitY=1;exitDx=0;exitDy=0;" parent="1" source="430" target="389" edge="1">
                    <mxGeometry relative="1" as="geometry">
                        <mxPoint x="3863.2100000000005" y="884.3636363636365" as="sourcePoint"/>
                    </mxGeometry>
                </mxCell>
                <mxCell id="383" style="edgeStyle=orthogonalEdgeStyle;rounded=0;orthogonalLoop=1;jettySize=auto;html=1;entryX=1;entryY=0.5;entryDx=0;entryDy=0;strokeColor=default;align=center;verticalAlign=middle;fontFamily=Helvetica;fontSize=11;fontColor=default;labelBackgroundColor=default;endArrow=none;endFill=0;exitX=0.75;exitY=1;exitDx=0;exitDy=0;" parent="1" source="430" target="391" edge="1">
                    <mxGeometry relative="1" as="geometry">
                        <mxPoint x="3861.2100000000005" y="859.909090909091" as="sourcePoint"/>
                    </mxGeometry>
                </mxCell>
                <mxCell id="384" style="edgeStyle=orthogonalEdgeStyle;rounded=0;orthogonalLoop=1;jettySize=auto;html=1;entryX=0.5;entryY=1;entryDx=0;entryDy=0;strokeColor=default;align=center;verticalAlign=middle;fontFamily=Helvetica;fontSize=11;fontColor=default;labelBackgroundColor=default;endArrow=none;endFill=0;" parent="1" source="430" target="405" edge="1">
                    <mxGeometry relative="1" as="geometry"/>
                </mxCell>
                <mxCell id="385" style="edgeStyle=orthogonalEdgeStyle;rounded=0;orthogonalLoop=1;jettySize=auto;html=1;entryX=0.5;entryY=1;entryDx=0;entryDy=0;strokeColor=default;align=center;verticalAlign=middle;fontFamily=Helvetica;fontSize=11;fontColor=default;labelBackgroundColor=default;endArrow=classic;endFill=1;" parent="1" source="431" target="358" edge="1">
                    <mxGeometry relative="1" as="geometry">
                        <Array as="points">
                            <mxPoint x="3615.57" y="630"/>
                            <mxPoint x="3719.57" y="630"/>
                            <mxPoint x="3719.57" y="572"/>
                        </Array>
                    </mxGeometry>
                </mxCell>
                <mxCell id="386" style="edgeStyle=orthogonalEdgeStyle;rounded=0;orthogonalLoop=1;jettySize=auto;html=1;entryX=0;entryY=0.5;entryDx=0;entryDy=0;strokeColor=default;align=center;verticalAlign=middle;fontFamily=Helvetica;fontSize=11;fontColor=default;labelBackgroundColor=default;endArrow=none;endFill=0;exitX=0.75;exitY=1;exitDx=0;exitDy=0;" parent="1" source="431" target="389" edge="1">
                    <mxGeometry relative="1" as="geometry">
                        <mxPoint x="3592.2100000000005" y="885.0503597122301" as="sourcePoint"/>
                    </mxGeometry>
                </mxCell>
                <mxCell id="387" style="edgeStyle=orthogonalEdgeStyle;rounded=0;orthogonalLoop=1;jettySize=auto;html=1;entryX=0;entryY=0.5;entryDx=0;entryDy=0;strokeColor=default;align=center;verticalAlign=middle;fontFamily=Helvetica;fontSize=11;fontColor=default;labelBackgroundColor=default;endArrow=none;endFill=0;exitX=0.25;exitY=1;exitDx=0;exitDy=0;" parent="1" source="431" target="391" edge="1">
                    <mxGeometry relative="1" as="geometry">
                        <mxPoint x="3590.2100000000005" y="859.1079136690646" as="sourcePoint"/>
                    </mxGeometry>
                </mxCell>
                <mxCell id="388" value="" style="edgeStyle=none;shape=connector;rounded=1;html=1;labelBackgroundColor=default;strokeColor=default;fontFamily=Helvetica;fontSize=11;fontColor=default;endArrow=oval;endFill=0;" parent="1" source="431" target="426" edge="1">
                    <mxGeometry relative="1" as="geometry"/>
                </mxCell>
                <mxCell id="389" value="partecipazione passata" style="shape=rhombus;perimeter=rhombusPerimeter;whiteSpace=wrap;html=1;align=center;fontSize=12;" parent="1" vertex="1">
                    <mxGeometry x="3679.2100000000005" y="757" width="120" height="60" as="geometry"/>
                </mxCell>
                <mxCell id="390" value="" style="edgeStyle=none;rounded=0;orthogonalLoop=1;jettySize=auto;html=1;strokeColor=default;align=center;verticalAlign=middle;fontFamily=Helvetica;fontSize=11;fontColor=default;labelBackgroundColor=default;endArrow=oval;endFill=0;entryX=0.041;entryY=0.559;entryDx=0;entryDy=0;entryPerimeter=0;" parent="1" source="391" target="396" edge="1">
                    <mxGeometry relative="1" as="geometry"/>
                </mxCell>
                <mxCell id="391" value="partecipazione corrente" style="shape=rhombus;perimeter=rhombusPerimeter;whiteSpace=wrap;html=1;align=center;verticalAlign=middle;" parent="1" vertex="1">
                    <mxGeometry x="3679.2100000000005" y="849" width="120" height="60" as="geometry"/>
                </mxCell>
                <mxCell id="392" value="(t,e)" style="text;html=1;align=center;verticalAlign=middle;resizable=0;points=[];autosize=1;strokeColor=none;fillColor=none;fontFamily=Helvetica;fontSize=11;fontColor=default;labelBackgroundColor=default;" parent="1" vertex="1">
                    <mxGeometry x="3717.2100000000005" y="595.87" width="40" height="30" as="geometry"/>
                </mxCell>
                <mxCell id="393" value="(0,1)" style="text;html=1;align=center;verticalAlign=middle;resizable=0;points=[];autosize=1;strokeColor=none;fillColor=none;" parent="1" vertex="1">
                    <mxGeometry x="3885.21" y="742" width="50" height="30" as="geometry"/>
                </mxCell>
                <mxCell id="394" value="(1,N)" style="text;html=1;align=center;verticalAlign=middle;resizable=0;points=[];autosize=1;strokeColor=none;fillColor=none;fontFamily=Helvetica;fontSize=11;fontColor=default;labelBackgroundColor=default;" parent="1" vertex="1">
                    <mxGeometry x="3542.2100000000005" y="742" width="50" height="30" as="geometry"/>
                </mxCell>
                <mxCell id="395" value="(1,N)" style="text;html=1;align=center;verticalAlign=middle;resizable=0;points=[];autosize=1;strokeColor=none;fillColor=none;fontFamily=Helvetica;fontSize=11;fontColor=default;labelBackgroundColor=default;" parent="1" vertex="1">
                    <mxGeometry x="3640.2100000000005" y="742" width="50" height="30" as="geometry"/>
                </mxCell>
                <mxCell id="396" value="data adesione" style="text;html=1;align=center;verticalAlign=middle;resizable=0;points=[];autosize=1;strokeColor=none;fillColor=none;fontFamily=Helvetica;fontSize=11;fontColor=default;labelBackgroundColor=default;" parent="1" vertex="1">
                    <mxGeometry x="3753.2100000000005" y="909" width="90" height="30" as="geometry"/>
                </mxCell>
                <mxCell id="397" value="data adesione" style="text;html=1;align=center;verticalAlign=middle;resizable=0;points=[];autosize=1;strokeColor=none;fillColor=none;fontFamily=Helvetica;fontSize=11;fontColor=default;labelBackgroundColor=default;" parent="1" vertex="1">
                    <mxGeometry x="3763.77" y="807.2" width="90" height="30" as="geometry"/>
                </mxCell>
                <mxCell id="398" value="data fine adesione" style="text;html=1;align=center;verticalAlign=middle;resizable=0;points=[];autosize=1;strokeColor=none;fillColor=none;fontFamily=Helvetica;fontSize=11;fontColor=default;labelBackgroundColor=default;" parent="1" vertex="1">
                    <mxGeometry x="3764.77" y="826.2" width="110" height="30" as="geometry"/>
                </mxCell>
                <mxCell id="399" style="edgeStyle=none;rounded=0;orthogonalLoop=1;jettySize=auto;html=1;entryX=0.638;entryY=0.862;entryDx=0;entryDy=0;entryPerimeter=0;strokeColor=default;align=center;verticalAlign=middle;fontFamily=Helvetica;fontSize=11;fontColor=default;labelBackgroundColor=default;endArrow=none;endFill=0;exitX=0.032;exitY=0.457;exitDx=0;exitDy=0;exitPerimeter=0;startArrow=oval;startFill=0;" parent="1" target="389" edge="1">
                    <mxGeometry relative="1" as="geometry">
                        <mxPoint x="3768.65" y="824.9099999999999" as="sourcePoint"/>
                        <mxPoint x="3715.2100000000005" y="848.44" as="targetPoint"/>
                    </mxGeometry>
                </mxCell>
                <mxCell id="400" style="edgeStyle=none;rounded=0;orthogonalLoop=1;jettySize=auto;html=1;entryX=0.552;entryY=0.95;entryDx=0;entryDy=0;strokeColor=default;align=center;verticalAlign=middle;fontFamily=Helvetica;fontSize=11;fontColor=default;labelBackgroundColor=default;endArrow=none;endFill=0;exitX=0.03;exitY=0.574;exitDx=0;exitDy=0;exitPerimeter=0;startArrow=oval;startFill=0;entryPerimeter=0;" parent="1" source="398" target="389" edge="1">
                    <mxGeometry relative="1" as="geometry">
                        <mxPoint x="3736.3300000000004" y="859" as="targetPoint"/>
                    </mxGeometry>
                </mxCell>
                <mxCell id="401" value="" style="edgeStyle=orthogonalEdgeStyle;rounded=0;orthogonalLoop=1;jettySize=auto;html=1;strokeColor=default;align=center;verticalAlign=middle;fontFamily=Helvetica;fontSize=11;fontColor=default;labelBackgroundColor=default;endArrow=none;endFill=0;" parent="1" source="402" edge="1">
                    <mxGeometry relative="1" as="geometry">
                        <mxPoint x="3995.209999999999" y="908.9999999999995" as="targetPoint"/>
                    </mxGeometry>
                </mxCell>
                <mxCell id="402" value="Produttore" style="whiteSpace=wrap;html=1;fontFamily=Helvetica;fontSize=11;fontColor=default;labelBackgroundColor=default;" parent="1" vertex="1">
                    <mxGeometry x="3935.21" y="802" width="120" height="60" as="geometry"/>
                </mxCell>
                <mxCell id="403" value="(0,N)" style="text;html=1;align=center;verticalAlign=middle;resizable=0;points=[];autosize=1;strokeColor=none;fillColor=none;" parent="1" vertex="1">
                    <mxGeometry x="3785.2100000000005" y="742" width="50" height="30" as="geometry"/>
                </mxCell>
                <mxCell id="404" value="" style="edgeStyle=orthogonalEdgeStyle;rounded=0;orthogonalLoop=1;jettySize=auto;html=1;strokeColor=default;align=center;verticalAlign=middle;fontFamily=Helvetica;fontSize=11;fontColor=default;labelBackgroundColor=default;endArrow=none;endFill=0;entryX=0.159;entryY=0.979;entryDx=0;entryDy=0;entryPerimeter=0;" parent="1" source="405" target="424" edge="1">
                    <mxGeometry relative="1" as="geometry"/>
                </mxCell>
                <mxCell id="405" value="partecipazione" style="shape=rhombus;perimeter=rhombusPerimeter;whiteSpace=wrap;html=1;align=center;" parent="1" vertex="1">
                    <mxGeometry x="3927.21" y="637" width="120" height="60" as="geometry"/>
                </mxCell>
                <mxCell id="406" value="" style="edgeStyle=orthogonalEdgeStyle;rounded=0;orthogonalLoop=1;jettySize=auto;html=1;strokeColor=default;align=center;verticalAlign=middle;fontFamily=Helvetica;fontSize=11;fontColor=default;labelBackgroundColor=default;endArrow=none;endFill=0;exitX=1;exitY=0.75;exitDx=0;exitDy=0;startArrow=classic;startFill=1;" parent="1" source="430" target="402" edge="1">
                    <mxGeometry relative="1" as="geometry">
                        <mxPoint x="4165.21" y="772" as="sourcePoint"/>
                    </mxGeometry>
                </mxCell>
                <mxCell id="407" value="(p,e)" style="text;html=1;align=center;verticalAlign=middle;resizable=0;points=[];autosize=1;strokeColor=none;fillColor=none;fontFamily=Helvetica;fontSize=11;fontColor=default;labelBackgroundColor=default;" parent="1" vertex="1">
                    <mxGeometry x="3935.21" y="727" width="50" height="30" as="geometry"/>
                </mxCell>
                <mxCell id="408" value="(0,N)" style="text;html=1;align=center;verticalAlign=middle;resizable=0;points=[];autosize=1;strokeColor=none;fillColor=none;fontFamily=Helvetica;fontSize=11;fontColor=default;labelBackgroundColor=default;" parent="1" vertex="1">
                    <mxGeometry x="3919.21" y="686" width="50" height="30" as="geometry"/>
                </mxCell>
                <mxCell id="409" value="(0,N)" style="text;html=1;align=center;verticalAlign=middle;resizable=0;points=[];autosize=1;strokeColor=none;fillColor=none;fontFamily=Helvetica;fontSize=11;fontColor=default;labelBackgroundColor=default;" parent="1" vertex="1">
                    <mxGeometry x="3944.7700000000004" y="602" width="50" height="30" as="geometry"/>
                </mxCell>
                <mxCell id="410" style="edgeStyle=orthogonalEdgeStyle;rounded=0;orthogonalLoop=1;jettySize=auto;html=1;entryX=0.5;entryY=0;entryDx=0;entryDy=0;strokeColor=default;align=center;verticalAlign=middle;fontFamily=Helvetica;fontSize=11;fontColor=default;labelBackgroundColor=default;endArrow=none;endFill=0;exitX=1;exitY=0.5;exitDx=0;exitDy=0;" parent="1" source="411" target="424" edge="1">
                    <mxGeometry relative="1" as="geometry"/>
                </mxCell>
                <mxCell id="411" value="raccolta di" style="shape=rhombus;perimeter=rhombusPerimeter;whiteSpace=wrap;html=1;align=center;" parent="1" vertex="1">
                    <mxGeometry x="3874.77" y="392" width="120" height="60" as="geometry"/>
                </mxCell>
                <mxCell id="412" value="(0,N)" style="text;html=1;align=center;verticalAlign=middle;resizable=0;points=[];autosize=1;strokeColor=none;fillColor=none;fontFamily=Helvetica;fontSize=11;fontColor=default;labelBackgroundColor=default;" parent="1" vertex="1">
                    <mxGeometry x="3769.2100000000005" y="362" width="50" height="30" as="geometry"/>
                </mxCell>
                <mxCell id="413" value="(1,1)" style="text;html=1;align=center;verticalAlign=middle;resizable=0;points=[];autosize=1;strokeColor=none;fillColor=none;fontFamily=Helvetica;fontSize=11;fontColor=default;labelBackgroundColor=default;" parent="1" vertex="1">
                    <mxGeometry x="3990.21" y="515" width="50" height="30" as="geometry"/>
                </mxCell>
                <mxCell id="414" style="edgeStyle=orthogonalEdgeStyle;rounded=0;orthogonalLoop=1;jettySize=auto;html=1;strokeColor=default;align=center;verticalAlign=middle;fontFamily=Helvetica;fontSize=11;fontColor=default;labelBackgroundColor=default;endArrow=none;endFill=0;entryX=1;entryY=0.25;entryDx=0;entryDy=0;" parent="1" edge="1">
                    <mxGeometry relative="1" as="geometry">
                        <mxPoint x="3765.4300000000007" y="346.45000000000005" as="targetPoint"/>
                        <Array as="points">
                            <mxPoint x="4260" y="938.48"/>
                            <mxPoint x="4260" y="346.48"/>
                        </Array>
                        <mxPoint x="4041.1442857142856" y="938.3071428571441" as="sourcePoint"/>
                    </mxGeometry>
                </mxCell>
                <mxCell id="415" value="condurre" style="shape=rhombus;perimeter=rhombusPerimeter;whiteSpace=wrap;html=1;align=center;" parent="1" vertex="1">
                    <mxGeometry x="3935.21" y="909" width="120" height="60" as="geometry"/>
                </mxCell>
                <mxCell id="416" value="(1,N)" style="text;html=1;align=center;verticalAlign=middle;resizable=0;points=[];autosize=1;strokeColor=none;fillColor=none;fontFamily=Helvetica;fontSize=11;fontColor=default;labelBackgroundColor=default;" parent="1" vertex="1">
                    <mxGeometry x="3985.21" y="856.2" width="50" height="30" as="geometry"/>
                </mxCell>
                <mxCell id="417" value="(1,N)" style="text;html=1;align=center;verticalAlign=middle;resizable=0;points=[];autosize=1;strokeColor=none;fillColor=none;fontFamily=Helvetica;fontSize=11;fontColor=default;labelBackgroundColor=default;" parent="1" vertex="1">
                    <mxGeometry x="3769.2100000000005" y="320" width="50" height="30" as="geometry"/>
                </mxCell>
                <mxCell id="418" style="edgeStyle=none;rounded=0;html=1;endArrow=oval;endFill=0;exitX=0.681;exitY=0.006;exitDx=0;exitDy=0;exitPerimeter=0;" parent="1" source="424" edge="1">
                    <mxGeometry relative="1" as="geometry">
                        <mxPoint x="4068.5699999999997" y="512" as="targetPoint"/>
                        <mxPoint x="4029.626" y="545" as="sourcePoint"/>
                    </mxGeometry>
                </mxCell>
                <mxCell id="419" value="(t,e)" style="text;html=1;align=center;verticalAlign=middle;resizable=0;points=[];autosize=1;strokeColor=none;fillColor=none;" parent="1" vertex="1">
                    <mxGeometry x="3718.71" y="240" width="40" height="30" as="geometry"/>
                </mxCell>
                <mxCell id="420" value="(0,N)" style="text;html=1;align=center;verticalAlign=middle;resizable=0;points=[];autosize=1;strokeColor=none;fillColor=none;" parent="1" vertex="1">
                    <mxGeometry x="3710.2100000000005" y="484" width="50" height="30" as="geometry"/>
                </mxCell>
                <mxCell id="421" value="(1,1)" style="text;html=1;align=center;verticalAlign=middle;resizable=0;points=[];autosize=1;strokeColor=none;fillColor=none;fontFamily=Helvetica;fontSize=11;fontColor=default;labelBackgroundColor=default;" parent="1" vertex="1">
                    <mxGeometry x="3714.7700000000004" y="392" width="50" height="30" as="geometry"/>
                </mxCell>
                <mxCell id="422" value="" style="edgeStyle=none;orthogonalLoop=1;jettySize=auto;html=1;endArrow=oval;endFill=1;rounded=1;" parent="1" edge="1">
                    <mxGeometry width="100" relative="1" as="geometry">
                        <mxPoint x="3857.6299999999997" y="434" as="sourcePoint"/>
                        <mxPoint x="4061.5699999999997" y="537" as="targetPoint"/>
                        <Array as="points">
                            <mxPoint x="3857.57" y="367"/>
                            <mxPoint x="4061.5699999999997" y="367"/>
                        </Array>
                    </mxGeometry>
                </mxCell>
                <mxCell id="423" value="" style="edgeStyle=none;html=1;startArrow=none;startFill=0;endArrow=none;endFill=0;entryX=0;entryY=0.5;entryDx=0;entryDy=0;" parent="1" source="424" target="438" edge="1">
                    <mxGeometry relative="1" as="geometry"/>
                </mxCell>
                <mxCell id="424" value="Canzone" style="whiteSpace=wrap;html=1;fontFamily=Helvetica;fontSize=11;fontColor=default;labelBackgroundColor=default;" parent="1" vertex="1">
                    <mxGeometry x="3968.21" y="545" width="120" height="60" as="geometry"/>
                </mxCell>
                <mxCell id="425" value="titolo" style="text;html=1;align=center;verticalAlign=middle;resizable=0;points=[];autosize=1;strokeColor=none;fillColor=none;" parent="1" vertex="1">
                    <mxGeometry x="4063.7700000000004" y="496.15" width="50" height="30" as="geometry"/>
                </mxCell>
                <mxCell id="426" value="data formazione" style="text;html=1;align=center;verticalAlign=middle;resizable=0;points=[];autosize=1;strokeColor=none;fillColor=none;fontSize=11;fontFamily=Helvetica;fontColor=default;" parent="1" vertex="1">
                    <mxGeometry x="3432.71" y="699.25" width="100" height="30" as="geometry"/>
                </mxCell>
                <mxCell id="427" style="edgeStyle=none;rounded=0;orthogonalLoop=1;jettySize=auto;html=1;exitX=0;exitY=0.25;exitDx=0;exitDy=0;strokeColor=default;align=center;verticalAlign=middle;fontFamily=Helvetica;fontSize=11;fontColor=default;labelBackgroundColor=default;endArrow=oval;endFill=0;" parent="1" source="430" edge="1">
                    <mxGeometry relative="1" as="geometry">
                        <mxPoint x="3778.236666666666" y="696.3333333333335" as="targetPoint"/>
                    </mxGeometry>
                </mxCell>
                <mxCell id="428" style="edgeStyle=none;rounded=0;orthogonalLoop=1;jettySize=auto;html=1;strokeColor=default;align=center;verticalAlign=middle;fontFamily=Helvetica;fontSize=11;fontColor=default;labelBackgroundColor=default;endArrow=oval;endFill=0;" parent="1" source="430" edge="1">
                    <mxGeometry relative="1" as="geometry">
                        <mxPoint x="3778.236666666666" y="709.6666666666665" as="targetPoint"/>
                    </mxGeometry>
                </mxCell>
                <mxCell id="429" style="edgeStyle=none;rounded=0;orthogonalLoop=1;jettySize=auto;html=1;strokeColor=default;align=center;verticalAlign=middle;fontFamily=Helvetica;fontSize=11;fontColor=default;labelBackgroundColor=default;endArrow=oval;endFill=0;" parent="1" source="430" edge="1">
                    <mxGeometry relative="1" as="geometry">
                        <mxPoint x="3777.958888888889" y="722.1666666666665" as="targetPoint"/>
                    </mxGeometry>
                </mxCell>
                <mxCell id="430" value="Solista" style="whiteSpace=wrap;html=1;fontFamily=Helvetica;fontSize=11;fontColor=default;labelBackgroundColor=default;" parent="1" vertex="1">
                    <mxGeometry x="3799.2100000000005" y="687" width="120" height="60" as="geometry"/>
                </mxCell>
                <mxCell id="431" value="Gruppo" style="whiteSpace=wrap;html=1;fontFamily=Helvetica;fontSize=11;fontColor=default;labelBackgroundColor=default;" parent="1" vertex="1">
                    <mxGeometry x="3555.2100000000005" y="686" width="120" height="60" as="geometry"/>
                </mxCell>
                <mxCell id="432" value="&lt;div style=&quot;text-align: left;&quot;&gt;nome d'arte&lt;/div&gt;&lt;div style=&quot;text-align: left;&quot;&gt;&lt;br&gt;&lt;/div&gt;&lt;div style=&quot;text-align: left;&quot;&gt;&lt;span style=&quot;text-align: center; font-size: 12px;&quot;&gt;&lt;div style=&quot;text-align: left;&quot;&gt;&lt;span style=&quot;background-color: initial;&quot;&gt;numero di telefono (1,N)&lt;/span&gt;&lt;/div&gt;&lt;/span&gt;&lt;span style=&quot;text-align: center; font-size: 12px;&quot;&gt;&lt;div style=&quot;text-align: left;&quot;&gt;&lt;span style=&quot;background-color: initial;&quot;&gt;email (1,N)&lt;/span&gt;&lt;/div&gt;&lt;/span&gt;&lt;/div&gt;&lt;span style=&quot;font-size: 12px;&quot;&gt;&lt;div style=&quot;text-align: left;&quot;&gt;&lt;span style=&quot;background-color: initial;&quot;&gt;data di registrazione&lt;/span&gt;&lt;br&gt;&lt;/div&gt;&lt;/span&gt;&lt;span style=&quot;font-size: 12px;&quot;&gt;&lt;div style=&quot;text-align: left;&quot;&gt;&lt;br&gt;&lt;/div&gt;&lt;/span&gt;" style="text;html=1;align=center;verticalAlign=middle;resizable=0;points=[];autosize=1;strokeColor=none;fillColor=none;fontSize=11;fontFamily=Helvetica;fontColor=default;" parent="1" vertex="1">
                    <mxGeometry x="3799.21" y="488.5" width="150" height="100" as="geometry"/>
                </mxCell>
                <mxCell id="433" value="&lt;div style=&quot;&quot;&gt;codice fiscale&lt;/div&gt;&lt;div style=&quot;&quot;&gt;nome&lt;/div&gt;&lt;div style=&quot;&quot;&gt;cognome&lt;/div&gt;&lt;div style=&quot;&quot;&gt;data di nascita&lt;/div&gt;" style="text;html=1;align=right;verticalAlign=middle;resizable=0;points=[];autosize=1;strokeColor=none;fillColor=none;fontSize=11;fontFamily=Helvetica;fontColor=default;" parent="1" vertex="1">
                    <mxGeometry x="3679.21" y="666" width="90" height="70" as="geometry"/>
                </mxCell>
                <mxCell id="434" value="" style="edgeStyle=none;rounded=0;orthogonalLoop=1;jettySize=auto;html=1;strokeColor=default;align=center;verticalAlign=middle;fontFamily=Helvetica;fontSize=11;fontColor=default;labelBackgroundColor=default;endArrow=none;endFill=0;startArrow=oval;startFill=0;" parent="1" edge="1">
                    <mxGeometry relative="1" as="geometry">
                        <mxPoint x="3777.57" y="683" as="sourcePoint"/>
                        <mxPoint x="3799.2100000000005" y="696.2000000000003" as="targetPoint"/>
                    </mxGeometry>
                </mxCell>
                <mxCell id="435" value="&lt;div style=&quot;text-align: left;&quot;&gt;testo&lt;/div&gt;&lt;div style=&quot;text-align: left;&quot;&gt;data di registrazione&lt;/div&gt;&lt;div style=&quot;text-align: left;&quot;&gt;lunghezza in secondi&lt;/div&gt;" style="text;html=1;align=center;verticalAlign=middle;resizable=0;points=[];autosize=1;strokeColor=none;fillColor=none;fontSize=11;fontFamily=Helvetica;fontColor=default;" parent="1" vertex="1">
                    <mxGeometry x="4113.77" y="587" width="130" height="50" as="geometry"/>
                </mxCell>
                <mxCell id="436" style="edgeStyle=none;rounded=0;html=1;endArrow=oval;endFill=0;entryX=0.029;entryY=0.257;entryDx=0;entryDy=0;entryPerimeter=0;" parent="1" source="424" target="435" edge="1">
                    <mxGeometry relative="1" as="geometry">
                        <mxPoint x="4127.450000000001" y="584.5" as="targetPoint"/>
                        <mxPoint x="4090.09" y="604.5" as="sourcePoint"/>
                    </mxGeometry>
                </mxCell>
                <mxCell id="437" value="" style="edgeStyle=none;html=1;startArrow=none;startFill=0;endArrow=none;endFill=0;exitX=0.5;exitY=0;exitDx=0;exitDy=0;entryX=0.5;entryY=1;entryDx=0;entryDy=0;" parent="1" source="438" target="439" edge="1">
                    <mxGeometry relative="1" as="geometry"/>
                </mxCell>
                <mxCell id="438" value="in" style="shape=rhombus;perimeter=rhombusPerimeter;whiteSpace=wrap;html=1;align=center;" parent="1" vertex="1">
                    <mxGeometry x="4133.77" y="544.48" width="120" height="60" as="geometry"/>
                </mxCell>
                <mxCell id="439" value="File" style="whiteSpace=wrap;html=1;fontFamily=Helvetica;fontSize=11;fontColor=default;labelBackgroundColor=default;" parent="1" vertex="1">
                    <mxGeometry x="4133.77" y="450.63" width="120" height="60" as="geometry"/>
                </mxCell>
                <mxCell id="440" value="(1,1)" style="text;html=1;align=center;verticalAlign=middle;resizable=0;points=[];autosize=1;strokeColor=none;fillColor=none;fontFamily=Helvetica;fontSize=11;fontColor=default;labelBackgroundColor=default;" parent="1" vertex="1">
                    <mxGeometry x="4075.2700000000004" y="552" width="50" height="30" as="geometry"/>
                </mxCell>
                <mxCell id="441" value="(1,1)" style="text;html=1;align=center;verticalAlign=middle;resizable=0;points=[];autosize=1;strokeColor=none;fillColor=none;fontFamily=Helvetica;fontSize=11;fontColor=default;labelBackgroundColor=default;" parent="1" vertex="1">
                    <mxGeometry x="4184.57" y="508.48" width="50" height="30" as="geometry"/>
                </mxCell>
                <mxCell id="442" value="&lt;div style=&quot;&quot;&gt;&lt;br&gt;&lt;/div&gt;&lt;div style=&quot;&quot;&gt;stato&lt;/div&gt;&lt;div style=&quot;&quot;&gt;data inizio&lt;/div&gt;&lt;div style=&quot;&quot;&gt;data fine&lt;/div&gt;&lt;div style=&quot;&quot;&gt;genere musicale (1,N)&lt;/div&gt;" style="text;html=1;align=right;verticalAlign=middle;resizable=0;points=[];autosize=1;strokeColor=none;fillColor=none;fontSize=11;fontFamily=Helvetica;fontColor=default;" parent="1" vertex="1">
                    <mxGeometry x="3421.21" y="277.65000000000003" width="130" height="80" as="geometry"/>
                </mxCell>
                <mxCell id="443" style="rounded=0;orthogonalLoop=1;jettySize=auto;html=1;entryX=0.002;entryY=0.578;entryDx=0;entryDy=0;entryPerimeter=0;endArrow=oval;endFill=0;" parent="1" source="358" target="432" edge="1">
                    <mxGeometry relative="1" as="geometry"/>
                </mxCell>
                <mxCell id="444" style="edgeStyle=none;rounded=0;orthogonalLoop=1;jettySize=auto;html=1;entryX=0.002;entryY=0.725;entryDx=0;entryDy=0;entryPerimeter=0;strokeColor=default;align=center;verticalAlign=middle;fontFamily=Helvetica;fontSize=11;fontColor=default;labelBackgroundColor=default;endArrow=oval;endFill=0;" parent="1" source="358" target="432" edge="1">
                    <mxGeometry relative="1" as="geometry"/>
                </mxCell>
                <mxCell id="445" style="edgeStyle=none;rounded=0;orthogonalLoop=1;jettySize=auto;html=1;entryX=0.026;entryY=0.52;entryDx=0;entryDy=0;entryPerimeter=0;strokeColor=default;align=center;verticalAlign=middle;fontFamily=Helvetica;fontSize=11;fontColor=default;labelBackgroundColor=default;endArrow=oval;endFill=0;" parent="1" source="424" target="435" edge="1">
                    <mxGeometry relative="1" as="geometry"/>
                </mxCell>
                <mxCell id="446" style="edgeStyle=none;rounded=0;orthogonalLoop=1;jettySize=auto;html=1;entryX=0.026;entryY=0.796;entryDx=0;entryDy=0;entryPerimeter=0;strokeColor=default;align=center;verticalAlign=middle;fontFamily=Helvetica;fontSize=11;fontColor=default;labelBackgroundColor=default;endArrow=oval;endFill=0;" parent="1" source="424" target="435" edge="1">
                    <mxGeometry relative="1" as="geometry"/>
                </mxCell>
                <mxCell id="447" value="" style="edgeStyle=segmentEdgeStyle;endArrow=none;html=1;curved=0;rounded=1;endSize=8;startSize=8;sourcePerimeterSpacing=0;targetPerimeterSpacing=0;strokeColor=default;align=center;verticalAlign=middle;fontFamily=Helvetica;fontSize=11;fontColor=default;labelBackgroundColor=default;endFill=0;startArrow=oval;startFill=1;" parent="1" edge="1">
                    <mxGeometry width="100" relative="1" as="geometry">
                        <mxPoint x="3234.57" y="560" as="sourcePoint"/>
                        <mxPoint x="3514.57" y="530" as="targetPoint"/>
                        <Array as="points">
                            <mxPoint x="3234.57" y="610"/>
                            <mxPoint x="3514.57" y="610"/>
                            <mxPoint x="3514.57" y="580"/>
                        </Array>
                    </mxGeometry>
                </mxCell>
                <mxCell id="448" value="(1,N)" style="text;html=1;align=center;verticalAlign=middle;resizable=0;points=[];autosize=1;strokeColor=none;fillColor=none;fontFamily=Helvetica;fontSize=11;fontColor=default;labelBackgroundColor=default;" parent="1" vertex="1">
                    <mxGeometry x="4030.21" y="605" width="50" height="30" as="geometry"/>
                </mxCell>
                <mxCell id="449" style="edgeStyle=orthogonalEdgeStyle;rounded=0;orthogonalLoop=1;jettySize=auto;html=1;strokeColor=default;align=center;verticalAlign=middle;fontFamily=Helvetica;fontSize=11;fontColor=default;labelBackgroundColor=default;endArrow=none;endFill=0;jumpStyle=arc;entryX=0.5;entryY=1;entryDx=0;entryDy=0;" parent="1" source="354" target="424" edge="1">
                    <mxGeometry relative="1" as="geometry">
                        <mxPoint x="3774.57" y="1060.25" as="targetPoint"/>
                        <Array as="points">
                            <mxPoint x="4084.5699999999997" y="1060"/>
                            <mxPoint x="4084.5699999999997" y="640"/>
                            <mxPoint x="4028.5699999999997" y="640"/>
                        </Array>
                    </mxGeometry>
                </mxCell>
                <mxCell id="450" value="&lt;div style=&quot;text-align: left;&quot;&gt;&lt;br&gt;&lt;/div&gt;&lt;div style=&quot;text-align: left;&quot;&gt;&amp;nbsp; &amp;nbsp; &amp;nbsp; nome del file&lt;/div&gt;&lt;div style=&quot;text-align: left;&quot;&gt;&amp;nbsp; &amp;nbsp; &amp;nbsp; &amp;nbsp; &amp;nbsp; &amp;nbsp;percorso di sistema&lt;/div&gt;&lt;div style=&quot;text-align: left;&quot;&gt;&amp;nbsp; &amp;nbsp; &amp;nbsp; &amp;nbsp; &amp;nbsp; &amp;nbsp; &amp;nbsp; &amp;nbsp;estensione&lt;/div&gt;&lt;div style=&quot;text-align: left;&quot;&gt;&amp;nbsp; &amp;nbsp;&amp;nbsp;&lt;/div&gt;" style="text;html=1;align=center;verticalAlign=middle;resizable=0;points=[];autosize=1;strokeColor=none;fillColor=none;fontSize=11;fontFamily=Helvetica;fontColor=default;" parent="1" vertex="1">
                    <mxGeometry x="4113.77" y="372.56000000000006" width="150" height="80" as="geometry"/>
                </mxCell>
                <mxCell id="455" value="" style="edgeStyle=none;orthogonalLoop=1;jettySize=auto;html=1;endArrow=none;endFill=0;exitX=-0.002;exitY=0.356;exitDx=0;exitDy=0;exitPerimeter=0;" parent="1" source="439" edge="1">
                    <mxGeometry width="100" relative="1" as="geometry">
                        <mxPoint x="4124" y="471.96000000000004" as="sourcePoint"/>
                        <mxPoint x="4120" y="582.48" as="targetPoint"/>
                        <Array as="points">
                            <mxPoint x="4120" y="472.48"/>
                        </Array>
                    </mxGeometry>
                </mxCell>
                <mxCell id="456" value="" style="edgeStyle=none;orthogonalLoop=1;jettySize=auto;html=1;rounded=0;strokeColor=default;align=center;verticalAlign=middle;fontFamily=Helvetica;fontSize=11;fontColor=default;labelBackgroundColor=default;endArrow=none;endFill=0;startArrow=oval;startFill=1;" parent="1" edge="1">
                    <mxGeometry width="100" relative="1" as="geometry">
                        <mxPoint x="4125" y="462.48" as="sourcePoint"/>
                        <mxPoint x="4125.270000000001" y="484.4800000000002" as="targetPoint"/>
                        <Array as="points"/>
                    </mxGeometry>
                </mxCell>
                <mxCell id="460" style="edgeStyle=orthogonalEdgeStyle;html=1;entryX=0;entryY=0.5;entryDx=0;entryDy=0;rounded=0;endArrow=none;endFill=0;" edge="1" parent="1" source="457" target="458">
                    <mxGeometry relative="1" as="geometry"/>
                </mxCell>
                <mxCell id="463" style="rounded=0;html=1;endArrow=oval;endFill=0;exitX=0.574;exitY=0.012;exitDx=0;exitDy=0;exitPerimeter=0;" edge="1" parent="1">
                    <mxGeometry relative="1" as="geometry">
                        <mxPoint x="2820" y="782.48" as="targetPoint"/>
                        <mxPoint x="2819.88" y="817.7199999999999" as="sourcePoint"/>
                        <Array as="points">
                            <mxPoint x="2820" y="802.48"/>
                        </Array>
                    </mxGeometry>
                </mxCell>
                <mxCell id="464" style="rounded=0;html=1;endArrow=oval;endFill=0;" edge="1" parent="1" source="457">
                    <mxGeometry relative="1" as="geometry">
                        <mxPoint x="2801" y="762.48" as="targetPoint"/>
                    </mxGeometry>
                </mxCell>
                <mxCell id="457" value="Fascia Oraria" style="whiteSpace=wrap;html=1;" vertex="1" parent="1">
                    <mxGeometry x="2741" y="817" width="120" height="60" as="geometry"/>
                </mxCell>
                <mxCell id="458" value="di" style="shape=rhombus;perimeter=rhombusPerimeter;whiteSpace=wrap;html=1;align=center;" vertex="1" parent="1">
                    <mxGeometry x="2904.57" y="817.65" width="120" height="60" as="geometry"/>
                </mxCell>
                <mxCell id="461" value="(0,N)" style="text;html=1;align=center;verticalAlign=middle;resizable=0;points=[];autosize=1;strokeColor=none;fillColor=none;" vertex="1" parent="1">
                    <mxGeometry x="3019.5" y="723.6499999999999" width="50" height="30" as="geometry"/>
                </mxCell>
                <mxCell id="462" value="(1,1)" style="text;html=1;align=center;verticalAlign=middle;resizable=0;points=[];autosize=1;strokeColor=none;fillColor=none;" vertex="1" parent="1">
                    <mxGeometry x="2854.57" y="817" width="50" height="30" as="geometry"/>
                </mxCell>
                <mxCell id="465" value="orario inizio" style="text;html=1;align=center;verticalAlign=middle;resizable=0;points=[];autosize=1;strokeColor=none;fillColor=none;" vertex="1" parent="1">
                    <mxGeometry x="2819.57" y="768.68" width="80" height="30" as="geometry"/>
                </mxCell>
                <mxCell id="466" value="orario fine" style="text;html=1;align=center;verticalAlign=middle;resizable=0;points=[];autosize=1;strokeColor=none;fillColor=none;" vertex="1" parent="1">
                    <mxGeometry x="2796.57" y="747.1999999999999" width="80" height="30" as="geometry"/>
                </mxCell>
                <mxCell id="467" value="" style="rounded=0;orthogonalLoop=1;jettySize=auto;html=1;startArrow=oval;startFill=1;endArrow=none;endFill=0;exitX=-0.001;exitY=0.501;exitDx=0;exitDy=0;exitPerimeter=0;" edge="1" parent="1" source="468" target="262">
                    <mxGeometry relative="1" as="geometry">
                        <mxPoint x="3189.5" y="730.1220000000001" as="targetPoint"/>
                        <mxPoint x="3239.5" y="723.48" as="sourcePoint"/>
                        <Array as="points"/>
                    </mxGeometry>
                </mxCell>
                <mxCell id="468" value="codice" style="text;html=1;align=center;verticalAlign=middle;resizable=0;points=[];autosize=1;strokeColor=none;fillColor=none;" vertex="1" parent="1">
                    <mxGeometry x="3242.57" y="714.48" width="60" height="30" as="geometry"/>
                </mxCell>
                <mxCell id="469" value="" style="edgeStyle=none;orthogonalLoop=1;jettySize=auto;html=1;rounded=0;endArrow=oval;endFill=1;" edge="1" parent="1">
                    <mxGeometry width="100" relative="1" as="geometry">
                        <mxPoint x="3060" y="802.48" as="sourcePoint"/>
                        <mxPoint x="2810" y="802.48" as="targetPoint"/>
                        <Array as="points"/>
                    </mxGeometry>
                </mxCell>
                <mxCell id="472" value="" style="rounded=0;orthogonalLoop=1;jettySize=auto;html=1;startArrow=oval;startFill=0;endArrow=none;endFill=0;exitX=0.008;exitY=0.567;exitDx=0;exitDy=0;exitPerimeter=0;" edge="1" parent="1" source="473" target="262">
                    <mxGeometry relative="1" as="geometry">
                        <mxPoint x="3189.5000000000014" y="776.4699999999999" as="targetPoint"/>
                        <mxPoint x="3234.76" y="772.6499999999999" as="sourcePoint"/>
                    </mxGeometry>
                </mxCell>
                <mxCell id="473" value="tipo" style="text;html=1;align=center;verticalAlign=middle;resizable=0;points=[];autosize=1;strokeColor=none;fillColor=none;" vertex="1" parent="1">
                    <mxGeometry x="3242.5700000000006" y="762.6499999999999" width="40" height="30" as="geometry"/>
                </mxCell>
            </root>
        </mxGraphModel>
    </diagram>
</mxfile>